OxygenMono-Regular.ufo
<glyph name="exclam" format="1">
  <advance width="1229"/>
  <unicode hex="0021"/>
  <outline>
    <contour>
      <point x="735" y="0" type="line" smooth="no"/>
      <point x="495" y="0" type="line" smooth="no"/>
      <point x="495" y="276" type="line" smooth="no"/>
      <point x="735" y="276" type="line" smooth="no"/>
    </contour>
    <contour>
      <point x="584" y="489" type="line" smooth="no"/>
      <point x="495" y="1492" type="line" smooth="no"/>
      <point x="735" y="1492" type="line" smooth="no"/>
      <point x="646" y="489" type="line" smooth="no"/>
    </contour>
  </outline>
</glyph>
<glyph name="quotedbl" format="1">
  <advance width="1229"/>
  <unicode hex="0022"/>
  <outline>
    <contour>
      <point x="885" y="1568" type="line"/>
      <point x="834" y="1036" type="line"/>
      <point x="693" y="1036" type="line"/>
      <point x="654" y="1568" type="line"/>
    </contour>
    <contour>
      <point x="518" y="1568" type="line"/>
      <point x="467" y="1036" type="line"/>
      <point x="324" y="1036" type="line"/>
      <point x="285" y="1568" type="line"/>
    </contour>
  </outline>
</glyph>
<glyph name="numbersign" format="1">
  <advance width="1229"/>
  <unicode hex="0023"/>
  <outline>
    <contour>
      <point x="592" y="997" type="line" smooth="no"/>
      <point x="509" y="573" type="line" smooth="no"/>
      <point x="727" y="573" type="line" smooth="no"/>
      <point x="811" y="997" type="line" smooth="no"/>
    </contour>
    <contour>
      <point x="1155" y="997" type="line" smooth="no"/>
      <point x="971" y="997" type="line" smooth="no"/>
      <point x="886" y="573" type="line" smooth="no"/>
      <point x="1073" y="573" type="line" smooth="no"/>
      <point x="1058" y="437" type="line" smooth="no"/>
      <point x="863" y="437" type="line" smooth="no"/>
      <point x="772" y="-25" type="line" smooth="no"/>
      <point x="610" y="-25" type="line" smooth="no"/>
      <point x="698" y="437" type="line" smooth="no"/>
      <point x="483" y="437" type="line" smooth="no"/>
      <point x="393" y="-25" type="line" smooth="no"/>
      <point x="230" y="-25" type="line" smooth="no"/>
      <point x="324" y="437" type="line" smooth="no"/>
      <point x="108" y="437" type="line" smooth="no"/>
      <point x="121" y="573" type="line" smooth="no"/>
      <point x="350" y="573" type="line" smooth="no"/>
      <point x="430" y="996" type="line" smooth="no"/>
      <point x="205" y="996" type="line" smooth="no"/>
      <point x="219" y="1130" type="line" smooth="no"/>
      <point x="455" y="1130" type="line" smooth="no"/>
      <point x="541" y="1568" type="line" smooth="no"/>
      <point x="704" y="1568" type="line" smooth="no"/>
      <point x="619" y="1130" type="line" smooth="no"/>
      <point x="837" y="1130" type="line" smooth="no"/>
      <point x="921" y="1568" type="line" smooth="no"/>
      <point x="1083" y="1568" type="line" smooth="no"/>
      <point x="997" y="1130" type="line" smooth="no"/>
      <point x="1172" y="1130" type="line" smooth="no"/>
    </contour>
  </outline>
</glyph>
<glyph name="dollar" format="1">
  <advance width="1229"/>
  <unicode hex="0024"/>
  <outline>
    <contour>
      <point x="212.0" y="261.0" type="line"/>
      <point x="305.0" y="185.0"/>
      <point x="437.0" y="130.0"/>
      <point x="593.0" y="130.0" type="curve" smooth="yes"/>
      <point x="755.0" y="130.0"/>
      <point x="843.0" y="238.0"/>
      <point x="843.0" y="404.0" type="curve" smooth="yes"/>
      <point x="843.0" y="605.0"/>
      <point x="640.0" y="657.0"/>
      <point x="496.0" y="718.0" type="curve" smooth="yes"/>
      <point x="324.0" y="790.0"/>
      <point x="150.0" y="879.0"/>
      <point x="150.0" y="1123.0" type="curve" smooth="yes"/>
      <point x="150.0" y="1380.0"/>
      <point x="347.0" y="1517.0"/>
      <point x="604.0" y="1517.0" type="curve" smooth="yes"/>
      <point x="771.0" y="1517.0"/>
      <point x="902.0" y="1481.0"/>
      <point x="997.0" y="1406.0" type="curve"/>
      <point x="927.0" y="1262.0" type="line"/>
      <point x="850.0" y="1322.0"/>
      <point x="740.0" y="1362.8"/>
      <point x="614.0" y="1362.8" type="curve" smooth="yes"/>
      <point x="457.0" y="1362.8"/>
      <point x="357.0" y="1272.0"/>
      <point x="357.0" y="1121.0" type="curve" smooth="yes"/>
      <point x="357.0" y="938.0"/>
      <point x="577.0" y="890.0"/>
      <point x="706.0" y="833.0" type="curve" smooth="yes"/>
      <point x="878.0" y="757.0"/>
      <point x="1054.0" y="658.0"/>
      <point x="1054.0" y="415.0" type="curve" smooth="yes"/>
      <point x="1054.0" y="122.0"/>
      <point x="870.0" y="-25.0"/>
      <point x="589.0" y="-25.0" type="curve" smooth="yes"/>
      <point x="408.0" y="-25.0"/>
      <point x="258.0" y="16.0"/>
      <point x="141.0" y="94.0" type="curve"/>
    </contour>
    <contour>
      <point x="573" y="1752" type="curve"/>
      <point x="666" y="1752" type="line"/>
      <point x="666" y="1752"/>
      <point x="666" y="-218"/>
      <point x="666" y="-218" type="curve"/>
      <point x="573" y="-218" type="line"/>
      <point x="573" y="-218"/>
      <point x="573" y="1752"/>
    </contour>
    <contour>
      <point x="615.0" y="0.0" type="move" name="bottom"/>
    </contour>
    <contour>
      <point x="615.0" y="1491.0" type="move" name="top"/>
    </contour>
  </outline>
</glyph>
<glyph name="percent" format="1">
  <advance width="1229"/>
  <unicode hex="0025"/>
  <outline>
    <contour>
      <point x="330" y="1457" type="curve" smooth="yes"/>
      <point x="216" y="1457"/>
      <point x="193" y="1345"/>
      <point x="193" y="1228" type="curve" smooth="yes"/>
      <point x="193" y="1110"/>
      <point x="214" y="1004"/>
      <point x="329" y="1004" type="curve" smooth="yes"/>
      <point x="440" y="1004"/>
      <point x="465" y="1118"/>
      <point x="465" y="1232" type="curve" smooth="yes"/>
      <point x="465" y="1349"/>
      <point x="442" y="1457"/>
    </contour>
    <contour>
      <point x="1125" y="1018" type="line"/>
      <point x="201" y="465" type="line"/>
      <point x="140" y="567" type="line"/>
      <point x="1064" y="1124" type="line"/>
    </contour>
    <contour>
      <point x="333" y="1571" type="curve" smooth="yes"/>
      <point x="522" y="1571"/>
      <point x="589" y="1425"/>
      <point x="589" y="1232" type="curve" smooth="yes"/>
      <point x="589" y="1023"/>
      <point x="494" y="890"/>
      <point x="325" y="890" type="curve" smooth="yes"/>
      <point x="136" y="890"/>
      <point x="66" y="1038"/>
      <point x="66" y="1228" type="curve" smooth="yes"/>
      <point x="66" y="1422"/>
      <point x="142" y="1571"/>
    </contour>
    <contour>
      <point x="907" y="662" type="curve" smooth="yes"/>
      <point x="1096" y="662"/>
      <point x="1163" y="516"/>
      <point x="1163" y="323" type="curve" smooth="yes"/>
      <point x="1163" y="114"/>
      <point x="1068" y="-19"/>
      <point x="899" y="-19" type="curve" smooth="yes"/>
      <point x="710" y="-19"/>
      <point x="640" y="129"/>
      <point x="640" y="319" type="curve" smooth="yes"/>
      <point x="640" y="513"/>
      <point x="716" y="662"/>
    </contour>
    <contour>
      <point x="904" y="548" type="curve" smooth="yes"/>
      <point x="790" y="548"/>
      <point x="767" y="436"/>
      <point x="767" y="319" type="curve" smooth="yes"/>
      <point x="767" y="201"/>
      <point x="788" y="95"/>
      <point x="903" y="95" type="curve" smooth="yes"/>
      <point x="1014" y="95"/>
      <point x="1039" y="209"/>
      <point x="1039" y="323" type="curve" smooth="yes"/>
      <point x="1039" y="440"/>
      <point x="1016" y="548"/>
    </contour>
  </outline>
</glyph>
<glyph name="ampersand" format="1">
  <advance width="1229"/>
  <unicode hex="0026"/>
  <outline>
    <contour>
      <point x="61" y="413" type="curve" smooth="yes"/>
      <point x="61" y="641"/>
      <point x="200" y="784"/>
      <point x="346" y="881" type="curve"/>
      <point x="324" y="910" type="line"/>
      <point x="245" y="1011"/>
      <point x="138" y="1101"/>
      <point x="138" y="1277" type="curve" smooth="yes"/>
      <point x="138" y="1490"/>
      <point x="332" y="1594"/>
      <point x="529" y="1594" type="curve" smooth="yes"/>
      <point x="733" y="1594"/>
      <point x="935" y="1486"/>
      <point x="935" y="1270" type="curve" smooth="yes"/>
      <point x="935" y="1048"/>
      <point x="755" y="922"/>
      <point x="604" y="838" type="curve"/>
      <point x="965" y="366" type="line"/>
      <point x="1018" y="429"/>
      <point x="1054" y="493"/>
      <point x="1069" y="537" type="curve"/>
      <point x="1222" y="439" type="line"/>
      <point x="1188" y="359"/>
      <point x="1138" y="285"/>
      <point x="1076" y="220" type="curve"/>
      <point x="1193" y="68" type="line"/>
      <point x="1038" y="-24" type="line"/>
      <point x="938" y="106" type="line"/>
      <point x="814" y="24"/>
      <point x="667" y="-25"/>
      <point x="518" y="-25" type="curve" smooth="yes"/>
      <point x="238" y="-25"/>
      <point x="61" y="129"/>
    </contour>
    <contour>
      <point x="283" y="424" type="curve" smooth="yes"/>
      <point x="283" y="248"/>
      <point x="368" y="143"/>
      <point x="541" y="143" type="curve" smooth="yes"/>
      <point x="653" y="143"/>
      <point x="752" y="185"/>
      <point x="833" y="243" type="curve"/>
      <point x="449" y="746" type="line"/>
      <point x="358" y="677"/>
      <point x="283" y="576"/>
    </contour>
    <contour>
      <point x="341" y="1278" type="curve" smooth="yes"/>
      <point x="341" y="1150"/>
      <point x="432" y="1065"/>
      <point x="488" y="989" type="curve" smooth="yes"/>
      <point x="509" y="961" type="line"/>
      <point x="618" y="1022"/>
      <point x="733" y="1102"/>
      <point x="733" y="1260" type="curve" smooth="yes"/>
      <point x="733" y="1378"/>
      <point x="625" y="1443"/>
      <point x="522" y="1443" type="curve" smooth="yes"/>
      <point x="429" y="1443"/>
      <point x="341" y="1390"/>
    </contour>
  </outline>
</glyph>
<glyph name="parenleft" format="1">
  <advance width="1229"/>
  <unicode hex="0028"/>
  <outline>
    <contour>
      <point x="383" y="772" type="curve" smooth="yes"/>
      <point x="383" y="1157"/>
      <point x="509" y="1462"/>
      <point x="685" y="1705" type="curve"/>
      <point x="881" y="1705" type="line"/>
      <point x="691" y="1405"/>
      <point x="597" y="1097"/>
      <point x="597" y="781" type="curve" smooth="yes"/>
      <point x="597" y="400"/>
      <point x="719" y="110"/>
      <point x="883" y="-152" type="curve"/>
      <point x="688" y="-152" type="line"/>
      <point x="508" y="88"/>
      <point x="383" y="388"/>
    </contour>
  </outline>
</glyph>
<glyph name="asterisk" format="1">
  <advance width="1229"/>
  <unicode hex="002A"/>
  <outline>
    <contour>
      <point x="1046" y="374" type="line"/>
      <point x="866" y="270" type="line"/>
      <point x="612" y="673" type="line"/>
      <point x="363" y="270" type="line"/>
      <point x="181" y="374" type="line"/>
      <point x="499" y="752" type="line"/>
      <point x="56" y="899" type="line"/>
      <point x="148" y="1079" type="line"/>
      <point x="550" y="866" type="line"/>
      <point x="515" y="1330" type="line"/>
      <point x="711" y="1330" type="line"/>
      <point x="681" y="866" type="line"/>
      <point x="1080" y="1079" type="line"/>
      <point x="1173" y="899" type="line"/>
      <point x="728" y="752" type="line"/>
    </contour>
  </outline>
</glyph>
<glyph name="plus" format="1">
  <advance width="1229"/>
  <unicode hex="002b"/>
  <outline>
    <contour>
      <point x="652" y="1286" type="line" smooth="no"/>
      <point x="814" y="1286" type="line" smooth="no"/>
      <point x="814" y="827" type="line" smooth="no"/>
      <point x="1311" y="827" type="line" smooth="no"/>
      <point x="1311" y="676" type="line" smooth="no"/>
      <point x="813" y="676" type="line" smooth="no"/>
      <point x="813" y="217" type="line" smooth="no"/>
      <point x="648" y="217" type="line" smooth="no"/>
      <point x="648" y="676" type="line" smooth="no"/>
      <point x="152" y="676" type="line" smooth="no"/>
      <point x="152" y="827" type="line" smooth="no"/>
      <point x="652" y="827" type="line" smooth="no"/>
    </contour>
  </outline>
</glyph>
<glyph name="comma" format="1">
  <advance width="1229"/>
  <unicode hex="002C"/>
  <outline>
    <contour>
      <point x="440" y="-321" type="line"/>
      <point x="491" y="286" type="line"/>
      <point x="788" y="286" type="line"/>
      <point x="582" y="-321" type="line"/>
    </contour>
  </outline>
</glyph>
<glyph name="hyphen" format="1">
  <advance width="1229"/>
  <unicode hex="002d"/>
  <outline>
    <contour>
      <point x="993" y="827" type="line" smooth="no"/>
      <point x="993" y="672" type="line" smooth="no"/>
      <point x="323" y="672" type="line" smooth="no"/>
      <point x="323" y="827" type="line" smooth="no"/>
    </contour>
  </outline>
</glyph>
<glyph name="period" format="1">
  <advance width="1229"/>
  <unicode hex="002e"/>
  <outline>
    <contour>
      <point x="764" y="0" type="line" smooth="no"/>
      <point x="463" y="0" type="line" smooth="no"/>
      <point x="463" y="301" type="line" smooth="no"/>
      <point x="764" y="301" type="line" smooth="no"/>
    </contour>
  </outline>
</glyph>
<glyph name="slash" format="1">
  <advance width="1229"/>
  <unicode hex="002F"/>
  <outline>
    <contour>
      <point x="887" y="1585" type="line"/>
      <point x="1084" y="1585" type="line"/>
      <point x="375" y="-224" type="line"/>
      <point x="184" y="-224" type="line"/>
    </contour>
  </outline>
</glyph>
<glyph name="zero" format="1">
  <advance width="1229"/>
  <unicode hex="0030"/>
  <outline>
    <contour>
      <point x="614" y="1363" type="curve" smooth="yes"/>
      <point x="417" y="1363"/>
      <point x="319" y="1091"/>
      <point x="319" y="746" type="curve" smooth="yes"/>
      <point x="319" y="575.62"/>
      <point x="343.145" y="423.287"/>
      <point x="391.196" y="312.732" type="curve"/>
      <point x="749.371" y="1309.76" type="line"/>
      <point x="711.138" y="1344.03"/>
      <point x="666.021" y="1363"/>
    </contour>
    <contour>
      <point x="614" y="-25" type="curve" smooth="yes"/>
      <point x="275" y="-25"/>
      <point x="123" y="337"/>
      <point x="123" y="747" type="curve" smooth="yes"/>
      <point x="123" y="1124"/>
      <point x="242" y="1516"/>
      <point x="614" y="1516" type="curve" smooth="yes"/>
      <point x="986" y="1516"/>
      <point x="1105" y="1124"/>
      <point x="1105" y="747" type="curve" smooth="yes"/>
      <point x="1105" y="337"/>
      <point x="953" y="-25"/>
    </contour>
    <contour>
      <point x="841.242" y="1170.12" type="curve"/>
      <point x="487.335" y="175.986" type="line"/>
      <point x="523.704" y="146.297"/>
      <point x="565.935" y="130"/>
      <point x="614" y="130" type="curve" smooth="yes"/>
      <point x="810" y="130"/>
      <point x="909" y="401"/>
      <point x="909" y="746" type="curve" smooth="yes"/>
      <point x="909" y="911.49"/>
      <point x="886.451" y="1060.18"/>
    </contour>
  </outline>
</glyph>
<glyph name="one" format="1">
  <advance width="1229"/>
  <unicode hex="0031"/>
  <outline>
    <contour>
      <point x="1075" y="0" type="line"/>
      <point x="1075" y="146" type="line"/>
      <point x="761" y="146" type="line"/>
      <point x="761" y="1492" type="line"/>
      <point x="573" y="1492" type="line"/>
      <point x="464" y="1415"/>
      <point x="368" y="1341"/>
      <point x="237" y="1287" type="curve"/>
      <point x="237" y="1106" type="line"/>
      <point x="352" y="1150"/>
      <point x="471" y="1232"/>
      <point x="574" y="1290" type="curve"/>
      <point x="574" y="146" type="line"/>
      <point x="238" y="146" type="line"/>
      <point x="238" y="0" type="line"/>
    </contour>
  </outline>
</glyph>
<glyph name="two" format="1">
  <advance width="1229"/>
  <unicode hex="0032"/>
  <outline>
    <contour>
      <point x="186" y="1395" type="line" smooth="no"/>
      <point x="286" y="1474"/>
      <point x="388" y="1516"/>
      <point x="556" y="1516" type="curve" smooth="yes"/>
      <point x="850" y="1516"/>
      <point x="1009" y="1341"/>
      <point x="1009" y="1088" type="curve" smooth="yes"/>
      <point x="1009" y="857"/>
      <point x="856" y="682"/>
      <point x="746" y="552" type="curve" smooth="yes"/>
      <point x="402" y="146" type="line" smooth="no"/>
      <point x="1043" y="146" type="line" smooth="no"/>
      <point x="1043" y="0" type="line" smooth="no"/>
      <point x="196" y="0" type="line" smooth="no"/>
      <point x="196" y="191" type="line" smooth="no"/>
      <point x="634" y="723" type="line" smooth="yes"/>
      <point x="713" y="819"/>
      <point x="805" y="941"/>
      <point x="805" y="1083" type="curve" smooth="yes"/>
      <point x="805" y="1247"/>
      <point x="719" y="1341"/>
      <point x="558" y="1341" type="curve" smooth="yes"/>
      <point x="412" y="1341"/>
      <point x="336" y="1297"/>
      <point x="255" y="1239" type="curve" smooth="no"/>
    </contour>
  </outline>
</glyph>
<glyph name="three" format="1">
  <advance width="1229"/>
  <unicode hex="0033"/>
  <outline>
    <contour>
      <point x="577" y="157" type="curve" smooth="yes"/>
      <point x="768.008" y="157"/>
      <point x="894.702" y="249.812"/>
      <point x="894.702" y="431.768" type="curve" smooth="yes"/>
      <point x="894.702" y="640.007"/>
      <point x="694.869" y="704.423"/>
      <point x="483" y="705" type="curve" smooth="yes"/>
      <point x="373" y="705.3" type="line"/>
      <point x="373" y="883.3" type="line"/>
      <point x="483" y="885" type="line" smooth="yes"/>
      <point x="680.977" y="888.06"/>
      <point x="844" y="931"/>
      <point x="844" y="1128" type="curve" smooth="yes"/>
      <point x="844" y="1269"/>
      <point x="747" y="1349"/>
      <point x="573" y="1349" type="curve" smooth="yes"/>
      <point x="426" y="1349"/>
      <point x="312" y="1292"/>
      <point x="232" y="1221" type="curve"/>
      <point x="163" y="1382" type="line"/>
      <point x="267" y="1470"/>
      <point x="410" y="1516"/>
      <point x="597" y="1516" type="curve" smooth="yes"/>
      <point x="867" y="1516"/>
      <point x="1065" y="1375"/>
      <point x="1065" y="1143" type="curve" smooth="yes"/>
      <point x="1065" y="938"/>
      <point x="907" y="843"/>
      <point x="739" y="803" type="curve"/>
      <point x="926.701" y="769.876"/>
      <point x="1120" y="651.439"/>
      <point x="1120" y="412.667" type="curve" smooth="yes"/>
      <point x="1120" y="110.373"/>
      <point x="871.219" y="-12"/>
      <point x="567" y="-12" type="curve" smooth="yes"/>
      <point x="399" y="-12"/>
      <point x="255" y="43"/>
      <point x="161" y="113" type="curve"/>
      <point x="231" y="273" type="line"/>
      <point x="293" y="219"/>
      <point x="432" y="157"/>
    </contour>
  </outline>
</glyph>
<glyph name="four" format="1">
  <advance width="1229"/>
  <unicode hex="0034"/>
  <outline>
    <contour>
      <point x="710" y="1282" type="line" smooth="no"/>
      <point x="250" y="538" type="line" smooth="no"/>
      <point x="710" y="538" type="line" smooth="no"/>
    </contour>
    <contour>
      <point x="897" y="0" type="line" smooth="no"/>
      <point x="710" y="0" type="line" smooth="no"/>
      <point x="710" y="398" type="line" smooth="no"/>
      <point x="61" y="398" type="line" smooth="no"/>
      <point x="61" y="541" type="line" smooth="no"/>
      <point x="667" y="1492" type="line" smooth="no"/>
      <point x="897" y="1492" type="line" smooth="no"/>
      <point x="897" y="538" type="line" smooth="no"/>
      <point x="1139" y="538" type="line" smooth="no"/>
      <point x="1139" y="398" type="line" smooth="no"/>
      <point x="897" y="398" type="line" smooth="no"/>
    </contour>
  </outline>
</glyph>
<glyph name="seven" format="1">
  <advance width="1229"/>
  <unicode hex="0037"/>
  <outline>
    <contour>
      <point x="143" y="1323" type="line"/>
      <point x="143" y="1492" type="line"/>
      <point x="1028" y="1492" type="line"/>
      <point x="1028" y="1347" type="line"/>
      <point x="604" y="0" type="line"/>
      <point x="372" y="0" type="line"/>
      <point x="790" y="1323" type="line"/>
    </contour>
  </outline>
</glyph>
<glyph name="colon" format="1">
  <advance width="1229"/>
  <unicode hex="003a"/>
  <outline>
    <contour>
      <point x="788" y="144" type="line" smooth="no"/>
      <point x="487" y="144" type="line" smooth="no"/>
      <point x="487" y="445" type="line" smooth="no"/>
      <point x="788" y="445" type="line" smooth="no"/>
    </contour>
    <contour>
      <point x="788" y="830" type="line" smooth="no"/>
      <point x="487" y="830" type="line" smooth="no"/>
      <point x="487" y="1130" type="line" smooth="no"/>
      <point x="788" y="1130" type="line" smooth="no"/>
    </contour>
  </outline>
</glyph>
<glyph name="semicolon" format="1">
  <advance width="1229"/>
  <unicode hex="003B"/>
  <outline>
    <contour>
      <point x="778" y="838" type="line"/>
      <point x="479" y="838" type="line"/>
      <point x="479" y="1139" type="line"/>
      <point x="778" y="1139" type="line"/>
    </contour>
    <contour>
      <point x="410" y="-313" type="line"/>
      <point x="486" y="286" type="line"/>
      <point x="758" y="286" type="line"/>
      <point x="590" y="-313" type="line"/>
    </contour>
  </outline>
</glyph>
<glyph name="less" format="1">
  <advance width="1229"/>
  <unicode hex="003c"/>
  <outline>
    <contour>
      <point x="1174" y="367" type="line" smooth="no"/>
      <point x="1174" y="190" type="line" smooth="no"/>
      <point x="152" y="689" type="line" smooth="no"/>
      <point x="152" y="807" type="line" smooth="no"/>
      <point x="1178" y="1321" type="line" smooth="no"/>
      <point x="1178" y="1142" type="line" smooth="no"/>
      <point x="395" y="749" type="line" smooth="no"/>
    </contour>
  </outline>
</glyph>
<glyph name="equal" format="1">
  <advance width="1229"/>
  <unicode hex="003d"/>
  <outline>
    <contour>
      <point x="1195" y="457" type="line" smooth="no"/>
      <point x="35" y="457" type="line" smooth="no"/>
      <point x="35" y="605" type="line" smooth="no"/>
      <point x="1195" y="605" type="line" smooth="no"/>
    </contour>
    <contour>
      <point x="1194" y="898" type="line" smooth="no"/>
      <point x="34" y="898" type="line" smooth="no"/>
      <point x="34" y="1048" type="line" smooth="no"/>
      <point x="1194" y="1048" type="line" smooth="no"/>
    </contour>
  </outline>
</glyph>
<glyph name="A" format="1">
  <advance width="1229"/>
  <unicode hex="0041"/>
  <outline>
    <contour>
      <point x="720" y="1491" type="line"/>
      <point x="1161" y="0" type="line"/>
      <point x="964" y="0" type="line"/>
      <point x="823" y="481" type="line"/>
      <point x="404" y="481" type="line"/>
      <point x="264" y="0" type="line"/>
      <point x="68" y="0" type="line"/>
      <point x="508" y="1491" type="line"/>
    </contour>
    <contour>
      <point x="443" y="631" type="line"/>
      <point x="785" y="631" type="line"/>
      <point x="617" y="1278" type="line"/>
    </contour>
    <contour>
      <point x="615" y="1491" type="move" name="top"/>
    </contour>
    <contour>
      <point x="1106" y="10" type="move" name="ogonek"/>
    </contour>
  </outline>
</glyph>
<glyph name="B" format="1">
  <advance width="1229"/>
  <unicode hex="0042"/>
  <outline>
    <contour>
      <point x="961" y="782"/>
      <point x="1112" y="635"/>
      <point x="1112" y="433" type="curve" smooth="yes"/>
      <point x="1112" y="105"/>
      <point x="857" y="0"/>
      <point x="516" y="0" type="curve" smooth="yes"/>
      <point x="157" y="0" type="line"/>
      <point x="157" y="1491" type="line"/>
      <point x="450" y="1491" type="line" smooth="yes"/>
      <point x="761" y="1491"/>
      <point x="1035" y="1436"/>
      <point x="1035" y="1125" type="curve" smooth="yes"/>
      <point x="1035" y="944"/>
      <point x="919" y="851"/>
      <point x="768" y="810" type="curve"/>
    </contour>
    <contour>
      <point x="915" y="661"/>
      <point x="766" y="715"/>
      <point x="536" y="715" type="curve" smooth="yes"/>
      <point x="344" y="715" type="line"/>
      <point x="344" y="146" type="line"/>
      <point x="505" y="146" type="line" smooth="yes"/>
      <point x="777" y="146"/>
      <point x="915" y="208"/>
      <point x="915" y="442" type="curve" smooth="yes"/>
    </contour>
    <contour>
      <point x="491" y="876" type="line" smooth="yes"/>
      <point x="678" y="876"/>
      <point x="839" y="917"/>
      <point x="839" y="1090" type="curve" smooth="yes"/>
      <point x="839" y="1324"/>
      <point x="696" y="1344"/>
      <point x="396" y="1345" type="curve"/>
      <point x="396" y="1345"/>
      <point x="344" y="1345"/>
      <point x="344" y="1345" type="curve"/>
      <point x="344" y="876" type="line"/>
    </contour>
  </outline>
</glyph>
<glyph name="D" format="1">
  <advance width="1229"/>
  <unicode hex="0044"/>
  <outline>
    <contour>
      <point x="372" y="146" type="line" smooth="yes"/>
      <point x="794" y="146"/>
      <point x="926" y="368"/>
      <point x="926" y="747" type="curve" smooth="yes"/>
      <point x="926" y="1125"/>
      <point x="803" y="1345"/>
      <point x="374" y="1345" type="curve" smooth="yes"/>
      <point x="343" y="1345" type="line" smooth="no"/>
      <point x="343" y="146" type="line" smooth="no"/>
    </contour>
    <contour>
      <point x="156" y="1491" type="line" smooth="no"/>
      <point x="401" y="1491" type="line" smooth="yes"/>
      <point x="882" y="1491"/>
      <point x="1122" y="1218"/>
      <point x="1122" y="746" type="curve" smooth="yes"/>
      <point x="1122" y="267"/>
      <point x="879" y="0"/>
      <point x="379" y="0" type="curve" smooth="yes"/>
      <point x="156" y="0" type="line" smooth="no"/>
    </contour>
  </outline>
</glyph>
<glyph name="E" format="1">
  <advance width="1229"/>
  <unicode hex="0045"/>
  <outline>
    <contour>
      <point x="404" y="684" type="line" smooth="no"/>
      <point x="404" y="146" type="line" smooth="no"/>
      <point x="1108" y="146" type="line" smooth="no"/>
      <point x="1093" y="0" type="line" smooth="no"/>
      <point x="217" y="0" type="line" smooth="no"/>
      <point x="217" y="1491" type="line" smooth="no"/>
      <point x="1075" y="1491" type="line" smooth="no"/>
      <point x="1059" y="1345" type="line" smooth="no"/>
      <point x="404" y="1345" type="line" smooth="no"/>
      <point x="404" y="843" type="line" smooth="no"/>
      <point x="1026" y="843" type="line" smooth="no"/>
      <point x="1026" y="684" type="line" smooth="no"/>
    </contour>
  </outline>
</glyph>
<glyph name="E" format="1">
  <advance width="1229"/>
  <unicode hex="0045"/>
  <outline>
    <contour>
      <point x="404" y="684" type="line"/>
      <point x="404" y="146" type="line"/>
      <point x="1108" y="146" type="line"/>
      <point x="1093" y="0" type="line"/>
      <point x="217" y="0" type="line"/>
      <point x="217" y="1491" type="line"/>
      <point x="1075" y="1491" type="line"/>
      <point x="1059" y="1345" type="line"/>
      <point x="404" y="1345" type="line"/>
      <point x="404" y="843" type="line"/>
      <point x="1026" y="843" type="line"/>
      <point x="1026" y="684" type="line"/>
    </contour>
  </outline>
</glyph>
<glyph name="F" format="1">
  <advance width="1229"/>
  <unicode hex="0046"/>
  <outline>
    <contour>
      <point x="431" y="683" type="line"/>
      <point x="431" y="0" type="line"/>
      <point x="244" y="0" type="line"/>
      <point x="244" y="1491" type="line"/>
      <point x="1078" y="1491" type="line"/>
      <point x="1060" y="1345" type="line"/>
      <point x="431" y="1345" type="line"/>
      <point x="431" y="846" type="line"/>
      <point x="1034" y="846" type="line"/>
      <point x="1034" y="683" type="line"/>
    </contour>
  </outline>
</glyph>
<glyph name="G" format="1">
  <advance width="1229"/>
  <unicode hex="0047"/>
  <outline>
    <contour>
      <point x="1099" y="1348"/>
      <point x="1049" y="1255"/>
      <point x="1049" y="1255" type="curve"/>
      <point x="972" y="1325"/>
      <point x="865" y="1363"/>
      <point x="734" y="1363" type="curve" smooth="yes"/>
      <point x="449" y="1362"/>
      <point x="303" y="1061"/>
      <point x="303" y="748" type="curve" smooth="yes"/>
      <point x="303" y="422"/>
      <point x="427" y="130"/>
      <point x="704" y="130" type="curve" smooth="yes"/>
      <point x="822" y="130"/>
      <point x="900" y="172"/>
      <point x="975" y="217" type="curve"/>
      <point x="975" y="625" type="line"/>
      <point x="644" y="625" type="line"/>
      <point x="644" y="778" type="line"/>
      <point x="1148" y="778" type="line"/>
      <point x="1148" y="132" type="line"/>
      <point x="1023" y="52"/>
      <point x="886" y="-25"/>
      <point x="686" y="-25" type="curve" smooth="yes"/>
      <point x="295" y="-25"/>
      <point x="107" y="328"/>
      <point x="107" y="750" type="curve" smooth="yes"/>
      <point x="107" y="1213"/>
      <point x="370" y="1515"/>
      <point x="720" y="1515" type="curve" smooth="yes"/>
      <point x="890" y="1515"/>
      <point x="1017" y="1473"/>
      <point x="1116" y="1388" type="curve"/>
    </contour>
    <contour>
      <point x="605" y="1491" type="move" name="top"/>
    </contour>
    <contour>
      <point x="605" y="0" type="move" name="bottom"/>
    </contour>
  </outline>
</glyph>
<glyph name="H" format="1">
  <advance width="1229"/>
  <unicode hex="0048"/>
  <outline>
    <contour>
      <point x="327" y="0" type="line"/>
      <point x="140" y="0" type="line"/>
      <point x="140" y="1491" type="line"/>
      <point x="327" y="1491" type="line"/>
      <point x="327" y="855" type="line"/>
      <point x="902" y="855" type="line"/>
      <point x="902" y="1491" type="line"/>
      <point x="1089" y="1491" type="line"/>
      <point x="1089" y="0" type="line"/>
      <point x="902" y="0" type="line"/>
      <point x="902" y="702" type="line"/>
      <point x="327" y="702" type="line"/>
    </contour>
    <contour>
      <point x="615" y="1491" type="move" name="top"/>
    </contour>
    <contour>
      <point x="615" y="746" type="move" name="center"/>
    </contour>
  </outline>
</glyph>
<glyph name="J" format="1">
  <advance width="1229"/>
  <unicode hex="004A"/>
  <outline>
    <contour>
      <point x="170" y="0" type="line"/>
      <point x="170" y="0"/>
      <point x="404" y="-28"/>
      <point x="507" y="-28" type="curve" smooth="yes"/>
      <point x="824" y="-28"/>
      <point x="924" y="130"/>
      <point x="924" y="443" type="curve" smooth="yes"/>
      <point x="924" y="1491" type="line"/>
      <point x="309" y="1491" type="line"/>
      <point x="309" y="1345" type="line"/>
      <point x="737" y="1345" type="line"/>
      <point x="737" y="391" type="line" smooth="yes"/>
      <point x="737" y="221"/>
      <point x="657" y="131"/>
      <point x="501" y="131" type="curve" smooth="yes"/>
      <point x="396" y="131"/>
      <point x="159" y="162"/>
      <point x="159" y="162" type="curve"/>
    </contour>
    <contour>
      <point x="698" y="1491" type="move" name="top"/>
    </contour>
  </outline>
</glyph>
<glyph name="J" format="1">
  <advance width="1229"/>
  <unicode hex="004A"/>
  <outline>
    <contour>
      <point x="170" y="0" type="curve"/>
      <point x="159" y="162" type="line"/>
      <point x="159" y="162"/>
      <point x="396" y="131"/>
      <point x="501" y="131" type="curve" smooth="yes"/>
      <point x="657" y="131"/>
      <point x="737" y="221"/>
      <point x="737" y="391" type="curve" smooth="yes"/>
      <point x="737" y="1345" type="line"/>
      <point x="309" y="1345" type="line"/>
      <point x="309" y="1491" type="line"/>
      <point x="924" y="1491" type="line"/>
      <point x="924" y="443" type="line" smooth="yes"/>
      <point x="924" y="130"/>
      <point x="824" y="-28"/>
      <point x="507" y="-28" type="curve" smooth="yes"/>
      <point x="404" y="-28"/>
      <point x="170" y="0"/>
    </contour>
  </outline>
</glyph>
<glyph name="K" format="1">
  <advance width="1229"/>
  <unicode hex="004B"/>
  <outline>
    <contour>
      <point x="927" y="1491" type="line"/>
      <point x="1160" y="1491" type="line"/>
      <point x="661" y="823" type="line"/>
      <point x="1193" y="0" type="line"/>
      <point x="955" y="0" type="line"/>
      <point x="517" y="700" type="line"/>
      <point x="398" y="561" type="line"/>
      <point x="398" y="0" type="line"/>
      <point x="211" y="0" type="line"/>
      <point x="211" y="1491" type="line"/>
      <point x="398" y="1491" type="line"/>
      <point x="398" y="773" type="line"/>
    </contour>
    <contour>
      <point x="615" y="1491" type="move" name="top"/>
    </contour>
    <contour>
      <point x="615" y="0" type="move" name="bottom"/>
    </contour>
  </outline>
</glyph>
<glyph name="K" format="1">
  <advance width="1229"/>
  <unicode hex="004B"/>
  <outline>
    <contour>
      <point x="927" y="1491" type="line"/>
      <point x="1160" y="1491" type="line"/>
      <point x="661" y="823" type="line"/>
      <point x="1193" y="0" type="line"/>
      <point x="955" y="0" type="line"/>
      <point x="517" y="700" type="line"/>
      <point x="398" y="561" type="line"/>
      <point x="398" y="0" type="line"/>
      <point x="211" y="0" type="line"/>
      <point x="211" y="1491" type="line"/>
      <point x="398" y="1491" type="line"/>
      <point x="398" y="773" type="line"/>
    </contour>
  </outline>
</glyph>
<glyph name="L" format="1">
  <advance width="1229"/>
  <unicode hex="004c"/>
  <outline>
    <contour>
      <point x="490" y="146" type="line" smooth="no"/>
      <point x="1066" y="146" type="line" smooth="no"/>
      <point x="1056" y="0" type="line" smooth="no"/>
      <point x="303" y="0" type="line" smooth="no"/>
      <point x="303" y="1491" type="line" smooth="no"/>
      <point x="490" y="1491" type="line" smooth="no"/>
    </contour>
  </outline>
</glyph>
<glyph name="M" format="1">
  <advance width="1229"/>
  <unicode hex="004d"/>
  <outline>
    <contour>
      <point x="335" y="1230" type="line" smooth="no"/>
      <point x="335" y="0" type="line" smooth="no"/>
      <point x="149" y="0" type="line" smooth="no"/>
      <point x="149" y="1491" type="line" smooth="no"/>
      <point x="404" y="1491" type="line" smooth="no"/>
      <point x="617" y="802" type="line" smooth="no"/>
      <point x="830" y="1491" type="line" smooth="no"/>
      <point x="1079" y="1491" type="line" smooth="no"/>
      <point x="1079" y="0" type="line" smooth="no"/>
      <point x="898" y="0" type="line" smooth="no"/>
      <point x="898" y="1230" type="line" smooth="no"/>
      <point x="721" y="646" type="line" smooth="no"/>
      <point x="512" y="646" type="line" smooth="no"/>
    </contour>
  </outline>
</glyph>
<glyph name="N" format="1">
  <advance width="1229"/>
  <unicode hex="004e"/>
  <outline>
    <contour>
      <point x="1078" y="0" type="line" smooth="no"/>
      <point x="858" y="0" type="line" smooth="no"/>
      <point x="320" y="1206" type="line" smooth="no"/>
      <point x="320" y="0" type="line" smooth="no"/>
      <point x="150" y="0" type="line" smooth="no"/>
      <point x="150" y="1491" type="line" smooth="no"/>
      <point x="365" y="1491" type="line" smooth="no"/>
      <point x="911" y="289" type="line" smooth="no"/>
      <point x="911" y="1491" type="line" smooth="no"/>
      <point x="1078" y="1491" type="line" smooth="no"/>
    </contour>
  </outline>
</glyph>
<glyph name="P" format="1">
  <advance width="1229"/>
  <unicode hex="0050"/>
  <outline>
    <contour>
      <point x="1131" y="1062" type="curve" smooth="yes"/>
      <point x="1131" y="703"/>
      <point x="888" y="616"/>
      <point x="572" y="616" type="curve" smooth="yes"/>
      <point x="572" y="616"/>
      <point x="363" y="616"/>
      <point x="363" y="616" type="curve"/>
      <point x="363" y="0" type="line"/>
      <point x="176" y="0" type="line"/>
      <point x="176" y="1491" type="line"/>
      <point x="573" y="1491" type="line" smooth="yes"/>
      <point x="882" y="1491"/>
      <point x="1131" y="1386"/>
    </contour>
    <contour>
      <point x="363" y="765" type="line"/>
      <point x="622" y="765" type="line" smooth="yes"/>
      <point x="805" y="765"/>
      <point x="935" y="861"/>
      <point x="935" y="1053" type="curve" smooth="yes"/>
      <point x="935" y="1259"/>
      <point x="803" y="1345"/>
      <point x="622" y="1345" type="curve" smooth="yes"/>
      <point x="363" y="1345" type="line"/>
    </contour>
  </outline>
</glyph>
<glyph name="Q" format="1">
  <advance width="1229"/>
  <unicode hex="0051"/>
  <outline>
    <contour>
      <point x="764" y="20" type="line"/>
      <point x="832" y="-117"/>
      <point x="930" y="-232"/>
      <point x="1040" y="-330" type="curve"/>
      <point x="916" y="-458" type="line"/>
      <point x="786" y="-332"/>
      <point x="670" y="-188"/>
      <point x="586" y="-19" type="curve"/>
    </contour>
    <contour>
      <point x="575" y="-25" type="curve" smooth="yes"/>
      <point x="236" y="-25"/>
      <point x="84" y="337"/>
      <point x="84" y="747" type="curve" smooth="yes"/>
      <point x="84" y="1124"/>
      <point x="203" y="1516"/>
      <point x="575" y="1516" type="curve" smooth="yes"/>
      <point x="947" y="1516"/>
      <point x="1066" y="1124"/>
      <point x="1066" y="747" type="curve" smooth="yes"/>
      <point x="1066" y="337"/>
      <point x="914" y="-25"/>
    </contour>
    <contour>
      <point x="575" y="1363" type="curve" smooth="yes"/>
      <point x="378" y="1363"/>
      <point x="280" y="1091"/>
      <point x="280" y="746" type="curve" smooth="yes"/>
      <point x="280" y="401"/>
      <point x="379" y="130"/>
      <point x="575" y="130" type="curve" smooth="yes"/>
      <point x="771" y="130"/>
      <point x="870" y="401"/>
      <point x="870" y="746" type="curve" smooth="yes"/>
      <point x="870" y="1091"/>
      <point x="772" y="1363"/>
    </contour>
  </outline>
</glyph>
<glyph name="R" format="1">
  <advance width="1229"/>
  <unicode hex="0052"/>
  <outline>
    <contour>
      <point x="1115" y="1093" type="curve" smooth="yes"/>
      <point x="1115" y="873"/>
      <point x="973" y="749"/>
      <point x="784" y="707" type="curve"/>
      <point x="959" y="484"/>
      <point x="1074" y="244"/>
      <point x="1185" y="0" type="curve"/>
      <point x="968" y="0" type="line"/>
      <point x="862" y="230"/>
      <point x="790" y="400"/>
      <point x="601" y="665" type="curve"/>
      <point x="601" y="665"/>
      <point x="514" y="662"/>
      <point x="460" y="662" type="curve" smooth="yes"/>
      <point x="373" y="662" type="line"/>
      <point x="373" y="0" type="line"/>
      <point x="186" y="0" type="line"/>
      <point x="186" y="1491" type="line"/>
      <point x="476" y="1491" type="line" smooth="yes"/>
      <point x="821" y="1491"/>
      <point x="1115" y="1439"/>
    </contour>
    <contour>
      <point x="567" y="824" type="line" smooth="yes"/>
      <point x="778" y="824"/>
      <point x="920" y="888"/>
      <point x="920" y="1098" type="curve" smooth="yes"/>
      <point x="920" y="1286"/>
      <point x="750" y="1345"/>
      <point x="563" y="1345" type="curve" smooth="yes"/>
      <point x="373" y="1345" type="line"/>
      <point x="373" y="824" type="line"/>
    </contour>
    <contour>
      <point x="615" y="1491" type="move" name="top"/>
    </contour>
    <contour>
      <point x="615" y="0" type="move" name="bottom"/>
    </contour>
  </outline>
</glyph>
<glyph name="S" format="1">
  <advance width="1229"/>
  <unicode hex="0053"/>
  <outline>
    <contour>
      <point x="212" y="261" type="line"/>
      <point x="305" y="185"/>
      <point x="437" y="130"/>
      <point x="593" y="130" type="curve" smooth="yes"/>
      <point x="755" y="130"/>
      <point x="843" y="238"/>
      <point x="843" y="404" type="curve" smooth="yes"/>
      <point x="843" y="605"/>
      <point x="640" y="657"/>
      <point x="496" y="718" type="curve" smooth="yes"/>
      <point x="324" y="790"/>
      <point x="150" y="879"/>
      <point x="150" y="1123" type="curve" smooth="yes"/>
      <point x="150" y="1380"/>
      <point x="347" y="1517"/>
      <point x="604" y="1517" type="curve" smooth="yes"/>
      <point x="771" y="1517"/>
      <point x="902" y="1481"/>
      <point x="997" y="1406" type="curve"/>
      <point x="927" y="1262" type="line"/>
      <point x="850" y="1322"/>
      <point x="740" y="1363"/>
      <point x="614" y="1363" type="curve" smooth="yes"/>
      <point x="457" y="1363"/>
      <point x="357" y="1272"/>
      <point x="357" y="1121" type="curve" smooth="yes"/>
      <point x="357" y="938"/>
      <point x="577" y="890"/>
      <point x="706" y="833" type="curve" smooth="yes"/>
      <point x="878" y="757"/>
      <point x="1054" y="658"/>
      <point x="1054" y="415" type="curve" smooth="yes"/>
      <point x="1054" y="122"/>
      <point x="870" y="-25"/>
      <point x="589" y="-25" type="curve" smooth="yes"/>
      <point x="408" y="-25"/>
      <point x="258" y="16"/>
      <point x="141" y="94" type="curve"/>
    </contour>
  </outline>
</glyph>
<glyph name="T" format="1">
  <advance width="1229"/>
  <unicode hex="0054"/>
  <outline>
    <contour>
      <point x="1129" y="1491" type="line"/>
      <point x="1129" y="1345" type="line"/>
      <point x="705" y="1345" type="line"/>
      <point x="705" y="0" type="line"/>
      <point x="518" y="0" type="line"/>
      <point x="518" y="1345" type="line"/>
      <point x="94" y="1345" type="line"/>
      <point x="94" y="1491" type="line"/>
    </contour>
    <contour>
      <point x="615" y="1491" type="move" name="top"/>
    </contour>
    <contour>
      <point x="615" y="0" type="move" name="bottom"/>
    </contour>
    <contour>
      <point x="615" y="746" type="move" name="center"/>
    </contour>
  </outline>
</glyph>
<glyph name="U" format="1">
  <advance width="1229"/>
  <unicode hex="0055"/>
  <outline>
    <contour>
      <point x="614" y="-25" type="curve" smooth="yes"/>
      <point x="271" y="-25"/>
      <point x="129" y="129"/>
      <point x="129" y="484" type="curve" smooth="yes"/>
      <point x="129" y="1491" type="line" smooth="no"/>
      <point x="316" y="1491" type="line" smooth="no"/>
      <point x="316" y="490" type="line" smooth="yes"/>
      <point x="316" y="253"/>
      <point x="374" y="130"/>
      <point x="614" y="130" type="curve" smooth="yes"/>
      <point x="854" y="130"/>
      <point x="912" y="253"/>
      <point x="912" y="490" type="curve" smooth="yes"/>
      <point x="912" y="1491" type="line" smooth="no"/>
      <point x="1099" y="1491" type="line" smooth="no"/>
      <point x="1099" y="484" type="line" smooth="yes"/>
      <point x="1099" y="129"/>
      <point x="957" y="-25"/>
    </contour>
  </outline>
</glyph>
<glyph name="V" format="1">
  <advance width="1229"/>
  <unicode hex="0056"/>
  <outline>
    <contour>
      <point x="967" y="1491" type="line" smooth="no"/>
      <point x="1172" y="1491" type="line" smooth="no"/>
      <point x="722" y="0" type="line" smooth="no"/>
      <point x="505" y="0" type="line" smooth="no"/>
      <point x="57" y="1491" type="line" smooth="no"/>
      <point x="262" y="1491" type="line" smooth="no"/>
      <point x="617" y="223" type="line" smooth="no"/>
    </contour>
  </outline>
</glyph>
<glyph name="W" format="1">
  <advance width="1229"/>
  <unicode hex="0057"/>
  <outline>
    <contour>
      <point x="905" y="210" type="line" smooth="no"/>
      <point x="971" y="1491" type="line" smooth="no"/>
      <point x="1156" y="1491" type="line" smooth="no"/>
      <point x="1039" y="0" type="line" smooth="no"/>
      <point x="810" y="0" type="line" smooth="no"/>
      <point x="626" y="659" type="line" smooth="no"/>
      <point x="430" y="0" type="line" smooth="no"/>
      <point x="204" y="0" type="line" smooth="no"/>
      <point x="66" y="1491" type="line" smooth="no"/>
      <point x="251" y="1491" type="line" smooth="no"/>
      <point x="355" y="213" type="line" smooth="no"/>
      <point x="542" y="880" type="line" smooth="no"/>
      <point x="715" y="880" type="line" smooth="no"/>
    </contour>
  </outline>
</glyph>
<glyph name="X" format="1">
  <advance width="1229"/>
  <unicode hex="0058"/>
  <outline>
    <contour>
      <point x="112" y="1491" type="line"/>
      <point x="340" y="1491" type="line"/>
      <point x="629" y="892" type="line"/>
      <point x="941" y="1491" type="line"/>
      <point x="1149" y="1491" type="line"/>
      <point x="749" y="763" type="line"/>
      <point x="1157" y="0" type="line"/>
      <point x="933" y="0" type="line"/>
      <point x="613" y="627" type="line"/>
      <point x="286" y="0" type="line"/>
      <point x="72" y="0" type="line"/>
      <point x="496" y="762" type="line"/>
    </contour>
  </outline>
</glyph>
<glyph name="Y" format="1">
  <advance width="1229"/>
  <unicode hex="0059"/>
  <outline>
    <contour>
      <point x="702" y="0" type="line" smooth="no"/>
      <point x="515" y="0" type="line" smooth="no"/>
      <point x="515" y="593" type="line" smooth="no"/>
      <point x="69" y="1491" type="line" smooth="no"/>
      <point x="275" y="1491" type="line" smooth="no"/>
      <point x="610" y="774" type="line" smooth="no"/>
      <point x="949" y="1491" type="line" smooth="no"/>
      <point x="1160" y="1491" type="line" smooth="no"/>
      <point x="702" y="593" type="line" smooth="no"/>
    </contour>
  </outline>
</glyph>
<glyph name="Z" format="1">
  <advance width="1229"/>
  <unicode hex="005a"/>
  <outline>
    <contour>
      <point x="397" y="146" type="line" smooth="no"/>
      <point x="1049" y="146" type="line" smooth="no"/>
      <point x="1049" y="0" type="line" smooth="no"/>
      <point x="156" y="0" type="line" smooth="no"/>
      <point x="156" y="143" type="line" smooth="no"/>
      <point x="803" y="1345" type="line" smooth="no"/>
      <point x="191" y="1345" type="line" smooth="no"/>
      <point x="191" y="1491" type="line" smooth="no"/>
      <point x="1058" y="1491" type="line" smooth="no"/>
      <point x="1058" y="1364" type="line" smooth="no"/>
    </contour>
  </outline>
</glyph>
<glyph name="backslash" format="1">
  <advance width="1229"/>
  <unicode hex="005C"/>
  <outline>
    <contour>
      <point x="1082" y="-48" type="line"/>
      <point x="902" y="-48" type="line"/>
      <point x="193" y="1761" type="line"/>
      <point x="377" y="1761" type="line"/>
    </contour>
  </outline>
</glyph>
<glyph name="asciicircum" format="1">
  <advance width="1229"/>
  <unicode hex="005e"/>
  <outline>
    <contour>
      <point x="644" y="1554" type="line" smooth="no"/>
      <point x="757" y="1554" type="line" smooth="no"/>
      <point x="1296" y="597" type="line" smooth="no"/>
      <point x="1125" y="597" type="line" smooth="no"/>
      <point x="698" y="1368" type="line" smooth="no"/>
      <point x="284" y="597" type="line" smooth="no"/>
      <point x="111" y="597" type="line" smooth="no"/>
    </contour>
  </outline>
</glyph>
<glyph name="underscore" format="1">
  <advance width="1229"/>
  <unicode hex="005f"/>
  <outline>
    <contour>
      <point x="4" y="-296" type="line" smooth="no"/>
      <point x="4" y="-157" type="line" smooth="no"/>
      <point x="1076" y="-157" type="line" smooth="no"/>
      <point x="1076" y="-296" type="line" smooth="no"/>
    </contour>
  </outline>
</glyph>
<glyph name="grave" format="1">
  <advance width="1229"/>
  <unicode hex="0060"/>
  <outline>
    <contour>
      <point x="654" y="1705" type="line" smooth="no"/>
      <point x="937" y="1268" type="line" smooth="no"/>
      <point x="798" y="1268" type="line" smooth="no"/>
      <point x="418" y="1705" type="line" smooth="no"/>
    </contour>
  </outline>
</glyph>
<glyph name="a" format="1">
  <advance width="1229"/>
  <unicode hex="0061"/>
  <outline>
    <contour>
      <point x="849" y="245" type="curve" smooth="no"/>
      <point x="849" y="525" type="line" smooth="no"/>
      <point x="700" y="504" type="line" smooth="yes"/>
      <point x="543" y="482"/>
      <point x="350" y="460"/>
      <point x="350" y="289" type="curve" smooth="yes"/>
      <point x="350" y="179"/>
      <point x="418" y="108"/>
      <point x="530" y="108" type="curve" smooth="yes"/>
      <point x="654" y="108"/>
      <point x="767" y="161"/>
    </contour>
    <contour>
      <point x="495" y="-25" type="curve" smooth="yes"/>
      <point x="313" y="-25"/>
      <point x="172" y="93"/>
      <point x="172" y="280" type="curve" smooth="yes"/>
      <point x="172" y="552"/>
      <point x="414" y="589"/>
      <point x="703" y="623" type="curve" smooth="yes"/>
      <point x="849" y="640" type="line" smooth="no"/>
      <point x="849" y="756" type="line" smooth="yes"/>
      <point x="849" y="923"/>
      <point x="782" y="991"/>
      <point x="631" y="991" type="curve" smooth="yes"/>
      <point x="525" y="991"/>
      <point x="340" y="952"/>
      <point x="283" y="927" type="curve" smooth="no"/>
      <point x="240" y="1061" type="line" smooth="no"/>
      <point x="339" y="1094"/>
      <point x="467" y="1130"/>
      <point x="628" y="1130" type="curve" smooth="yes"/>
      <point x="856" y="1130"/>
      <point x="1031" y="1034"/>
      <point x="1031" y="791" type="curve" smooth="yes"/>
      <point x="1031" y="0" type="line" smooth="no"/>
      <point x="880" y="0" type="line" smooth="no"/>
      <point x="856" y="127" type="line" smooth="no"/>
      <point x="773" y="43"/>
      <point x="626" y="-25"/>
    </contour>
  </outline>
</glyph>
<glyph name="c" format="1">
  <advance width="1229"/>
  <unicode hex="0063"/>
  <outline>
    <contour>
      <point x="812" y="-25"/>
      <point x="930" y="5"/>
      <point x="1002" y="72" type="curve"/>
      <point x="958" y="195" type="line"/>
      <point x="897" y="152"/>
      <point x="810" y="115"/>
      <point x="711" y="115" type="curve"/>
      <point x="490" y="122"/>
      <point x="357" y="300"/>
      <point x="357" y="551" type="curve" smooth="yes"/>
      <point x="357" y="805"/>
      <point x="498" y="986"/>
      <point x="698" y="990" type="curve"/>
      <point x="781" y="990"/>
      <point x="869" y="969"/>
      <point x="953" y="913" type="curve"/>
      <point x="999" y="1035" type="line"/>
      <point x="937" y="1094"/>
      <point x="828" y="1130"/>
      <point x="700" y="1130" type="curve" smooth="yes"/>
      <point x="373" y="1130"/>
      <point x="175" y="858"/>
      <point x="173" y="555" type="curve"/>
      <point x="173" y="249"/>
      <point x="362" y="-25"/>
      <point x="703" y="-25" type="curve" smooth="yes"/>
    </contour>
    <contour>
      <point x="474" y="1098" type="move" name="top"/>
    </contour>
    <contour>
      <point x="474" y="0" type="move" name="bottom"/>
    </contour>
  </outline>
</glyph>
<glyph name="d" format="1">
  <advance width="1229"/>
  <unicode hex="0064"/>
  <outline>
    <contour>
      <point x="907" y="946" type="curve"/>
      <point x="907" y="1545" type="line"/>
      <point x="1089" y="1565" type="line"/>
      <point x="1089" y="0" type="line"/>
      <point x="909" y="0" type="line"/>
      <point x="907" y="150" type="line"/>
      <point x="830" y="49"/>
      <point x="733" y="-25"/>
      <point x="564" y="-25" type="curve" smooth="yes"/>
      <point x="245" y="-25"/>
      <point x="106" y="248"/>
      <point x="106" y="568" type="curve" smooth="yes"/>
      <point x="106" y="879"/>
      <point x="256" y="1130"/>
      <point x="565" y="1130" type="curve" smooth="yes"/>
      <point x="741" y="1130"/>
      <point x="836" y="1056"/>
    </contour>
    <contour>
      <point x="907" y="555" type="curve" smooth="yes"/>
      <point x="907" y="797"/>
      <point x="835" y="990"/>
      <point x="586" y="990" type="curve" smooth="yes"/>
      <point x="348" y="990"/>
      <point x="289" y="779"/>
      <point x="289" y="555" type="curve" smooth="yes"/>
      <point x="289" y="341"/>
      <point x="356" y="115"/>
      <point x="586" y="115" type="curve" smooth="yes"/>
      <point x="827" y="115"/>
      <point x="907" y="319"/>
    </contour>
    <contour>
      <point x="603" y="549" type="move" name="center"/>
    </contour>
  </outline>
</glyph>
<glyph name="e" format="1">
  <advance width="1229"/>
  <unicode hex="0065"/>
  <outline>
    <contour>
      <point x="876" y="653" type="line"/>
      <point x="866" y="821"/>
      <point x="816" y="990"/>
      <point x="640" y="990" type="curve" smooth="yes"/>
      <point x="442" y="990"/>
      <point x="381" y="831"/>
      <point x="361" y="653" type="curve"/>
    </contour>
    <contour>
      <point x="342" y="-25"/>
      <point x="171.0" y="224.004219159"/>
      <point x="171" y="555" type="curve" smooth="yes"/>
      <point x="171" y="868"/>
      <point x="334" y="1131"/>
      <point x="616" y="1131" type="curve" smooth="yes"/>
      <point x="914" y="1131"/>
      <point x="1050" y="880"/>
      <point x="1050" y="581" type="curve"/>
      <point x="1050" y="520" type="line"/>
      <point x="355" y="520" type="line"/>
      <point x="364.208117233" y="303.097682959"/>
      <point x="458" y="115"/>
      <point x="679" y="115" type="curve" smooth="yes"/>
      <point x="796" y="115"/>
      <point x="894" y="167"/>
      <point x="968" y="229" type="curve"/>
      <point x="1028" y="105" type="line"/>
      <point x="951" y="28"/>
      <point x="844" y="-25"/>
      <point x="673" y="-25" type="curve" smooth="yes"/>
    </contour>
    <contour>
      <point x="621" y="1097" type="move" name="top"/>
    </contour>
    <contour>
      <point x="621" y="0" type="move" name="bottom"/>
    </contour>
    <contour>
      <point x="1112" y="10" type="move" name="ogonek"/>
    </contour>
  </outline>
</glyph>
<glyph name="f" format="1">
  <advance width="1229"/>
  <unicode hex="0066"/>
  <outline>
    <contour>
      <point x="675" y="0" type="line"/>
      <point x="493" y="0" type="line"/>
      <point x="493" y="957" type="line"/>
      <point x="206" y="957" type="line"/>
      <point x="206" y="1097" type="line"/>
      <point x="493" y="1097" type="line"/>
      <point x="493" y="1433"/>
      <point x="520" y="1585"/>
      <point x="944" y="1585" type="curve" smooth="yes"/>
      <point x="1050" y="1585" type="line"/>
      <point x="1040" y="1445" type="line"/>
      <point x="940" y="1445" type="line" smooth="yes"/>
      <point x="751" y="1445"/>
      <point x="675" y="1419"/>
      <point x="675" y="1230" type="curve" smooth="yes"/>
      <point x="675" y="1097" type="line"/>
      <point x="1050" y="1097" type="line"/>
      <point x="1050" y="957" type="line"/>
      <point x="675" y="957" type="line"/>
    </contour>
  </outline>
</glyph>
<glyph name="g" format="1">
  <advance width="1229"/>
  <unicode hex="0067"/>
  <outline>
    <contour>
      <point x="597" y="990" type="curve" smooth="yes"/>
      <point x="362" y="990"/>
      <point x="309" y="788"/>
      <point x="309" y="550" type="curve" smooth="yes"/>
      <point x="309" y="360"/>
      <point x="378" y="162"/>
      <point x="589" y="162" type="curve" smooth="yes"/>
      <point x="823" y="162"/>
      <point x="888" y="361"/>
      <point x="888" y="556" type="curve" smooth="yes"/>
      <point x="888" y="784"/>
      <point x="833" y="990"/>
    </contour>
    <contour>
      <point x="888" y="210" type="line"/>
      <point x="846" y="103"/>
      <point x="727" y="1"/>
      <point x="573" y="0" type="curve" smooth="yes"/>
      <point x="296" y="-1"/>
      <point x="126" y="253"/>
      <point x="126" y="556" type="curve" smooth="yes"/>
      <point x="126" y="880"/>
      <point x="264" y="1130"/>
      <point x="577" y="1130" type="curve" smooth="yes"/>
      <point x="722" y="1130"/>
      <point x="819" y="1061"/>
      <point x="888" y="948" type="curve"/>
      <point x="894" y="1097" type="line"/>
      <point x="1079" y="1097" type="line"/>
      <point x="1071" y="879"/>
      <point x="1070" y="670"/>
      <point x="1070" y="446" type="curve" smooth="yes"/>
      <point x="1070" y="152" type="line" smooth="yes"/>
      <point x="1070" y="-317"/>
      <point x="909" y="-461"/>
      <point x="322" y="-461" type="curve"/>
      <point x="307" y="-321" type="line"/>
      <point x="730" y="-321"/>
      <point x="888" y="-249"/>
      <point x="888" y="137" type="curve" smooth="yes"/>
    </contour>
    <contour>
      <point x="605" y="1097" type="move" name="top"/>
    </contour>
  </outline>
</glyph>
<glyph name="h" format="1">
  <advance width="1229"/>
  <unicode hex="0068"/>
  <outline>
    <contour>
      <point x="1044" y="662" type="curve" smooth="yes"/>
      <point x="1044" y="0" type="line"/>
      <point x="862" y="0" type="line"/>
      <point x="862" y="639" type="line" smooth="yes"/>
      <point x="862" y="827"/>
      <point x="833" y="990"/>
      <point x="650" y="990" type="curve" smooth="yes"/>
      <point x="479" y="990"/>
      <point x="364" y="856"/>
      <point x="364" y="746" type="curve" smooth="yes"/>
      <point x="364" y="0" type="line"/>
      <point x="182" y="0" type="line"/>
      <point x="182" y="1545" type="line"/>
      <point x="364" y="1565" type="line"/>
      <point x="364" y="964" type="line"/>
      <point x="417" y="1033"/>
      <point x="523" y="1130"/>
      <point x="707" y="1130" type="curve" smooth="yes"/>
      <point x="957" y="1130"/>
      <point x="1044" y="937"/>
    </contour>
  </outline>
</glyph>
<glyph name="j" format="1">
  <advance width="1229"/>
  <unicode hex="006A"/>
  <outline>
    <contour>
      <point x="613" y="1386" type="curve" smooth="yes"/>
      <point x="613" y="1485" type="line" smooth="yes"/>
      <point x="613" y="1535"/>
      <point x="684" y="1576"/>
      <point x="734" y="1576" type="curve" smooth="yes"/>
      <point x="784" y="1576"/>
      <point x="855" y="1535"/>
      <point x="855" y="1485" type="curve" smooth="yes"/>
      <point x="855" y="1386" type="line" smooth="yes"/>
      <point x="855" y="1336"/>
      <point x="784" y="1295"/>
      <point x="734" y="1295" type="curve" smooth="yes"/>
      <point x="684" y="1295"/>
      <point x="613" y="1336"/>
    </contour>
    <contour>
      <point x="434" y="-220" type="line" smooth="yes"/>
      <point x="620" y="-220"/>
      <point x="645" y="-176"/>
      <point x="645" y="71" type="curve" smooth="yes"/>
      <point x="645" y="957" type="line"/>
      <point x="254" y="957" type="line"/>
      <point x="254" y="1097" type="line"/>
      <point x="827" y="1097" type="line"/>
      <point x="827" y="127" type="line" smooth="yes"/>
      <point x="827" y="-199"/>
      <point x="810" y="-360"/>
      <point x="435" y="-360" type="curve" smooth="yes"/>
      <point x="172" y="-360" type="line"/>
      <point x="172" y="-220" type="line"/>
    </contour>
  </outline>
</glyph>
<glyph name="k" format="1">
  <advance width="1229"/>
  <unicode hex="006B"/>
  <outline>
    <contour>
      <point x="392" y="652" type="line"/>
      <point x="878" y="1097" type="line"/>
      <point x="1108" y="1097" type="line"/>
      <point x="619" y="642" type="line"/>
      <point x="1175" y="0" type="line"/>
      <point x="947" y="0" type="line"/>
      <point x="490" y="558" type="line"/>
      <point x="392" y="472" type="line"/>
      <point x="392" y="0" type="line"/>
      <point x="210" y="0" type="line"/>
      <point x="210" y="1545" type="line"/>
      <point x="392" y="1565" type="line"/>
    </contour>
  </outline>
</glyph>
<glyph name="l" format="1">
  <advance width="1229"/>
  <unicode hex="006c"/>
  <outline>
    <contour>
      <point x="1039" y="0" type="line" smooth="no"/>
      <point x="894" y="0" type="line" smooth="yes"/>
      <point x="521" y="0"/>
      <point x="470" y="106"/>
      <point x="465" y="433" type="curve" smooth="no"/>
      <point x="465" y="1425" type="line" smooth="no"/>
      <point x="137" y="1425" type="line" smooth="no"/>
      <point x="137" y="1565" type="line" smooth="no"/>
      <point x="647" y="1565" type="line" smooth="no"/>
      <point x="647" y="442" type="line" smooth="yes"/>
      <point x="647" y="195"/>
      <point x="666" y="140"/>
      <point x="887" y="140" type="curve" smooth="yes"/>
      <point x="1048" y="140" type="line" smooth="no"/>
    </contour>
  </outline>
</glyph>
<glyph name="n" format="1">
  <advance width="1229"/>
  <unicode hex="006E"/>
  <outline>
    <contour>
      <point x="713" y="1130" type="curve" smooth="yes"/>
      <point x="966" y="1130"/>
      <point x="1054" y="955"/>
      <point x="1054" y="698" type="curve" smooth="yes"/>
      <point x="1054" y="0" type="line"/>
      <point x="872" y="0" type="line"/>
      <point x="872" y="650" type="line" smooth="yes"/>
      <point x="872" y="827"/>
      <point x="878" y="990"/>
      <point x="649" y="990" type="curve" smooth="yes"/>
      <point x="511" y="990"/>
      <point x="368" y="898"/>
      <point x="368" y="742" type="curve" smooth="yes"/>
      <point x="368" y="741"/>
      <point x="368.0" y="183.0"/>
      <point x="368" y="0" type="curve"/>
      <point x="186" y="0" type="line"/>
      <point x="186" y="1097" type="line"/>
      <point x="353" y="1097" type="line"/>
      <point x="363" y="978" type="line"/>
      <point x="426" y="1066"/>
      <point x="546" y="1130"/>
    </contour>
    <contour>
      <point x="598" y="1097" type="move" name="top"/>
    </contour>
    <contour>
      <point x="598" y="0" type="move" name="bottom"/>
    </contour>
  </outline>
</glyph>
<glyph name="p" format="1">
  <advance width="1229"/>
  <unicode hex="0070"/>
  <outline>
    <contour>
      <point x="339" y="555" type="curve" smooth="yes"/>
      <point x="339" y="319"/>
      <point x="406" y="115"/>
      <point x="647" y="115" type="curve" smooth="yes"/>
      <point x="876" y="115"/>
      <point x="924" y="341"/>
      <point x="924" y="555" type="curve" smooth="yes"/>
      <point x="924" y="779"/>
      <point x="877" y="990"/>
      <point x="644" y="990" type="curve" smooth="yes"/>
      <point x="402" y="990"/>
      <point x="339" y="797"/>
    </contour>
    <contour>
      <point x="669.869" y="-25.095" type="curve" smooth="yes"/>
      <point x="495.398" y="-25.095"/>
      <point x="392.048" y="58.1134"/>
      <point x="341" y="150" type="curve" smooth="no"/>
      <point x="341" y="-421" type="line" smooth="no"/>
      <point x="159" y="-441" type="line" smooth="no"/>
      <point x="159" y="1097" type="line" smooth="no"/>
      <point x="341" y="1097" type="line" smooth="no"/>
      <point x="341" y="946" type="line" smooth="no"/>
      <point x="399" y="1046"/>
      <point x="503" y="1130"/>
      <point x="659" y="1130" type="curve" smooth="yes"/>
      <point x="968" y="1130"/>
      <point x="1107" y="879"/>
      <point x="1107" y="568" type="curve" smooth="yes"/>
      <point x="1107" y="251.384"/>
      <point x="975.819" y="-25.095"/>
    </contour>
  </outline>
</glyph>
<glyph name="q" format="1">
  <advance width="1229"/>
  <unicode hex="0071"/>
  <outline>
    <contour>
      <point x="907" y="555" type="curve" smooth="yes"/>
      <point x="907" y="797"/>
      <point x="835" y="990"/>
      <point x="586" y="990" type="curve" smooth="yes"/>
      <point x="348" y="990"/>
      <point x="289" y="779"/>
      <point x="289" y="555" type="curve" smooth="yes"/>
      <point x="289" y="341"/>
      <point x="356" y="115"/>
      <point x="586" y="115" type="curve" smooth="yes"/>
      <point x="827" y="115"/>
      <point x="907" y="319"/>
    </contour>
    <contour>
      <point x="907" y="946" type="curve" smooth="no"/>
      <point x="907" y="1097" type="line" smooth="no"/>
      <point x="1089" y="1097" type="line" smooth="no"/>
      <point x="1089" y="-421" type="line" smooth="no"/>
      <point x="909" y="-441" type="line" smooth="no"/>
      <point x="907" y="150" type="line" smooth="no"/>
      <point x="830" y="49"/>
      <point x="733" y="-25"/>
      <point x="564" y="-25" type="curve" smooth="yes"/>
      <point x="245" y="-25"/>
      <point x="106" y="248"/>
      <point x="106" y="568" type="curve" smooth="yes"/>
      <point x="106" y="879"/>
      <point x="256" y="1130"/>
      <point x="565" y="1130" type="curve" smooth="yes"/>
      <point x="741" y="1130"/>
      <point x="836" y="1056"/>
    </contour>
  </outline>
</glyph>
<glyph name="r" format="1">
  <advance width="1229"/>
  <unicode hex="0072"/>
  <outline>
    <contour>
      <point x="458" y="0" type="line"/>
      <point x="640" y="0" type="line"/>
      <point x="640" y="610" type="line" smooth="yes"/>
      <point x="640" y="853"/>
      <point x="780" y="961"/>
      <point x="1004" y="961" type="curve" smooth="yes"/>
      <point x="1118" y="961" type="line"/>
      <point x="1118" y="1130" type="line"/>
      <point x="1030" y="1130" type="line" smooth="yes"/>
      <point x="849" y="1130"/>
      <point x="713" y="1051"/>
      <point x="622" y="894" type="curve"/>
      <point x="607" y="1097" type="line"/>
      <point x="234" y="1097" type="line"/>
      <point x="234" y="957" type="line"/>
      <point x="458" y="957" type="line"/>
    </contour>
    <contour>
      <point x="593.0" y="1097.0" type="move" name="top"/>
    </contour>
    <contour>
      <point x="593.0" y="0.0" type="move" name="bottom"/>
    </contour>
  </outline>
</glyph>
<glyph name="s" format="1">
  <advance width="1229"/>
  <unicode hex="0073"/>
  <outline>
    <contour>
      <point x="637" y="-25" type="line"/>
      <point x="848" y="-23"/>
      <point x="1021" y="92"/>
      <point x="1021" y="299" type="curve"/>
      <point x="1019" y="484"/>
      <point x="935" y="577"/>
      <point x="748" y="623" type="curve" smooth="yes"/>
      <point x="557" y="670" type="line" smooth="yes"/>
      <point x="437" y="699"/>
      <point x="414" y="747"/>
      <point x="413" y="815" type="curve"/>
      <point x="413" y="928"/>
      <point x="506" y="988"/>
      <point x="625" y="989" type="curve"/>
      <point x="744" y="989"/>
      <point x="862" y="952"/>
      <point x="921" y="927" type="curve"/>
      <point x="961" y="1055" type="line"/>
      <point x="879" y="1099"/>
      <point x="760" y="1130"/>
      <point x="622" y="1130" type="curve" smooth="yes"/>
      <point x="609" y="1130" type="line"/>
      <point x="369" y="1128"/>
      <point x="247" y="970"/>
      <point x="247" y="816" type="curve"/>
      <point x="249" y="680"/>
      <point x="292" y="569"/>
      <point x="514" y="515" type="curve" smooth="yes"/>
      <point x="700" y="470" type="line" smooth="yes"/>
      <point x="832" y="438"/>
      <point x="852" y="371"/>
      <point x="853" y="301" type="curve"/>
      <point x="853" y="184"/>
      <point x="759" y="127"/>
      <point x="614" y="126" type="curve"/>
      <point x="462" y="126"/>
      <point x="330" y="179"/>
      <point x="289" y="205" type="curve"/>
      <point x="244" y="74" type="line"/>
      <point x="311" y="24"/>
      <point x="473" y="-25"/>
      <point x="637" y="-25" type="curve"/>
    </contour>
    <contour>
      <point x="598" y="1097" type="move" name="top"/>
    </contour>
    <contour>
      <point x="598" y="0" type="move" name="bottom"/>
    </contour>
  </outline>
</glyph>
<glyph name="t" format="1">
  <advance width="1229"/>
  <unicode hex="0074"/>
  <outline>
    <contour>
      <point x="583" y="957" type="line"/>
      <point x="583" y="442" type="line" smooth="yes"/>
      <point x="583" y="195"/>
      <point x="632" y="140"/>
      <point x="853" y="140" type="curve" smooth="yes"/>
      <point x="1054" y="140" type="line"/>
      <point x="1044" y="0" type="line"/>
      <point x="860" y="0" type="line" smooth="yes"/>
      <point x="467" y="0"/>
      <point x="401" y="118"/>
      <point x="401" y="488" type="curve" smooth="yes"/>
      <point x="401" y="957" type="line"/>
      <point x="91" y="957" type="line"/>
      <point x="111" y="1097" type="line"/>
      <point x="401" y="1097" type="line"/>
      <point x="401" y="1475" type="line"/>
      <point x="583" y="1529" type="line"/>
      <point x="583" y="1097" type="line"/>
      <point x="1045" y="1097" type="line"/>
      <point x="1045" y="957" type="line"/>
    </contour>
  </outline>
</glyph>
<glyph name="v" format="1">
  <advance width="1229"/>
  <unicode hex="0076"/>
  <outline>
    <contour>
      <point x="618" y="189" type="line"/>
      <point x="731" y="496"/>
      <point x="831" y="787"/>
      <point x="939" y="1097" type="curve"/>
      <point x="1141" y="1097" type="line"/>
      <point x="714" y="0" type="line"/>
      <point x="511" y="0" type="line"/>
      <point x="87" y="1097" type="line"/>
      <point x="297" y="1097" type="line"/>
    </contour>
  </outline>
</glyph>
<glyph name="w" format="1">
  <advance width="1229"/>
  <unicode hex="0077"/>
  <outline>
    <contour>
      <point x="424" y="0" type="line" smooth="no"/>
      <point x="238" y="0" type="line" smooth="no"/>
      <point x="24" y="1097" type="line" smooth="no"/>
      <point x="207" y="1097" type="line" smooth="no"/>
      <point x="338" y="250" type="line" smooth="no"/>
      <point x="521" y="1097" type="line" smooth="no"/>
      <point x="738" y="1097" type="line" smooth="no"/>
      <point x="917" y="253" type="line" smooth="no"/>
      <point x="1032" y="1097" type="line" smooth="no"/>
      <point x="1204" y="1097" type="line" smooth="no"/>
      <point x="1003" y="0" type="line" smooth="no"/>
      <point x="811" y="0" type="line" smooth="no"/>
      <point x="628" y="953" type="line" smooth="no"/>
    </contour>
  </outline>
</glyph>
<glyph name="x" format="1">
  <advance width="1229"/>
  <unicode hex="0078"/>
  <outline>
    <contour>
      <point x="158" y="1097" type="line"/>
      <point x="366" y="1097" type="line"/>
      <point x="627" y="675" type="line"/>
      <point x="888" y="1097" type="line"/>
      <point x="1077" y="1097" type="line"/>
      <point x="740" y="565" type="line"/>
      <point x="1089" y="0" type="line"/>
      <point x="887" y="0" type="line"/>
      <point x="619" y="437" type="line"/>
      <point x="340" y="0" type="line"/>
      <point x="140" y="0" type="line"/>
      <point x="500" y="560" type="line"/>
    </contour>
  </outline>
</glyph>
<glyph name="y" format="1">
  <advance width="1229"/>
  <unicode hex="0079"/>
  <outline>
    <contour>
      <point x="644" y="208" type="line" smooth="no"/>
      <point x="934" y="1097" type="line" smooth="no"/>
      <point x="1133" y="1097" type="line" smooth="no"/>
      <point x="1133" y="1097"/>
      <point x="835.088" y="255.657"/>
      <point x="743" y="17" type="curve" smooth="yes"/>
      <point x="734.629" y="-4.6943"/>
      <point x="723" y="-34"/>
      <point x="714" y="-58" type="curve" smooth="yes"/>
      <point x="584" y="-388"/>
      <point x="527" y="-423"/>
      <point x="191" y="-423" type="curve" smooth="no"/>
      <point x="170" y="-270" type="line" smooth="no"/>
      <point x="408" y="-270"/>
      <point x="460" y="-267"/>
      <point x="549" y="24" type="curve" smooth="no"/>
      <point x="237" y="741"/>
      <point x="99" y="1097"/>
      <point x="99" y="1097" type="curve" smooth="no"/>
      <point x="296" y="1097" type="line" smooth="no"/>
    </contour>
  </outline>
</glyph>
<glyph name="z" format="1">
  <advance width="1229"/>
  <unicode hex="007a"/>
  <outline>
    <contour>
      <point x="223" y="1097" type="line" smooth="no"/>
      <point x="955" y="1097" type="line" smooth="no"/>
      <point x="955" y="959" type="line" smooth="no"/>
      <point x="402" y="140" type="line" smooth="no"/>
      <point x="992" y="138" type="line" smooth="no"/>
      <point x="992" y="0" type="line" smooth="no"/>
      <point x="203" y="0" type="line" smooth="no"/>
      <point x="203" y="142" type="line" smooth="no"/>
      <point x="746" y="957" type="line" smooth="no"/>
      <point x="223" y="957" type="line" smooth="no"/>
    </contour>
  </outline>
</glyph>
<glyph name="bar" format="1">
  <advance width="1229"/>
  <unicode hex="007c"/>
  <outline>
    <contour>
      <point x="530" y="-441" type="line" smooth="no"/>
      <point x="530" y="1585" type="line" smooth="no"/>
      <point x="691" y="1585" type="line" smooth="no"/>
      <point x="691" y="-441" type="line" smooth="no"/>
    </contour>
  </outline>
</glyph>
<glyph name="braceright" format="1">
  <advance width="1229"/>
  <unicode hex="007D"/>
  <outline>
    <contour>
      <point x="790" y="1097" type="line" smooth="yes"/>
      <point x="790" y="933"/>
      <point x="918" y="854"/>
      <point x="1079" y="844" type="curve"/>
      <point x="1079" y="709" type="line"/>
      <point x="918" y="699"/>
      <point x="790" y="619"/>
      <point x="790" y="455" type="curve" smooth="yes"/>
      <point x="790" y="223" type="line" smooth="yes"/>
      <point x="790" y="-35"/>
      <point x="695" y="-154"/>
      <point x="431" y="-153" type="curve" smooth="yes"/>
      <point x="202" y="-152" type="line"/>
      <point x="202" y="-17" type="line"/>
      <point x="431" y="-17" type="line" smooth="yes"/>
      <point x="561" y="-17"/>
      <point x="568" y="93"/>
      <point x="568" y="223" type="curve" smooth="yes"/>
      <point x="568" y="464" type="line" smooth="yes"/>
      <point x="568" y="663"/>
      <point x="664" y="718"/>
      <point x="813" y="776" type="curve"/>
      <point x="664" y="834"/>
      <point x="568" y="890"/>
      <point x="568" y="1089" type="curve" smooth="yes"/>
      <point x="568" y="1330" type="line" smooth="yes"/>
      <point x="568" y="1460"/>
      <point x="561" y="1569"/>
      <point x="431" y="1569" type="curve" smooth="yes"/>
      <point x="202" y="1569" type="line"/>
      <point x="202" y="1705" type="line"/>
      <point x="431" y="1706" type="line" smooth="yes"/>
      <point x="695" y="1707"/>
      <point x="790" y="1588"/>
      <point x="790" y="1330" type="curve" smooth="yes"/>
    </contour>
  </outline>
</glyph>
<glyph name="exclamdown" format="1">
  <advance width="1229"/>
  <unicode hex="00a1"/>
  <outline>
    <contour>
      <point x="723" y="1184" type="line" smooth="no"/>
      <point x="723" y="959" type="line" smooth="no"/>
      <point x="487" y="959" type="line" smooth="no"/>
      <point x="487" y="1184" type="line" smooth="no"/>
    </contour>
    <contour>
      <point x="542" y="-417" type="line" smooth="no"/>
      <point x="542" y="753" type="line" smooth="no"/>
      <point x="715" y="753" type="line" smooth="no"/>
      <point x="715" y="-417" type="line" smooth="no"/>
    </contour>
  </outline>
</glyph>
<glyph name="cent" format="1">
  <advance width="1229"/>
  <unicode hex="00a2"/>
  <outline>
    <contour>
      <point x="690" y="988" type="line" smooth="no"/>
      <point x="488" y="957"/>
      <point x="364" y="782"/>
      <point x="364" y="553" type="curve" smooth="yes"/>
      <point x="364" y="334"/>
      <point x="456" y="175"/>
      <point x="635" y="131" type="curve" smooth="no"/>
    </contour>
    <contour>
      <point x="779" y="117" type="line" smooth="no"/>
      <point x="907" y="124"/>
      <point x="1009" y="177"/>
      <point x="1085" y="244" type="curve" smooth="no"/>
      <point x="1136" y="94" type="line" smooth="no"/>
      <point x="1043" y="22"/>
      <point x="918" y="-20"/>
      <point x="767" y="-24" type="curve" smooth="no"/>
      <point x="752" y="-277" type="line" smooth="no"/>
      <point x="626" y="-277" type="line" smooth="no"/>
      <point x="626" y="-18" type="line" smooth="no"/>
      <point x="348" y="22"/>
      <point x="172" y="231"/>
      <point x="172" y="545" type="curve" smooth="yes"/>
      <point x="172" y="905"/>
      <point x="408" y="1122"/>
      <point x="699" y="1139" type="curve" smooth="no"/>
      <point x="714" y="1368" type="line" smooth="no"/>
      <point x="857" y="1368" type="line" smooth="no"/>
      <point x="841" y="1133" type="line" smooth="no"/>
      <point x="966" y="1116"/>
      <point x="1066" y="1066"/>
      <point x="1128" y="984" type="curve" smooth="no"/>
      <point x="1046" y="868" type="line" smooth="no"/>
      <point x="997" y="929"/>
      <point x="923" y="971"/>
      <point x="833" y="988" type="curve" smooth="no"/>
    </contour>
  </outline>
</glyph>
<glyph name="sterling" format="1">
  <advance width="1229"/>
  <unicode hex="00a3"/>
  <outline>
    <contour>
      <point x="1038" y="0" type="line" smooth="no"/>
      <point x="120" y="0" type="line" smooth="no"/>
      <point x="119" y="150" type="line" smooth="no"/>
      <point x="236" y="215"/>
      <point x="321" y="300"/>
      <point x="321" y="478" type="curve" smooth="yes"/>
      <point x="321" y="756" type="line" smooth="no"/>
      <point x="119" y="756" type="line" smooth="no"/>
      <point x="119" y="903" type="line" smooth="no"/>
      <point x="320" y="903" type="line" smooth="no"/>
      <point x="315" y="945"/>
      <point x="313" y="986"/>
      <point x="313" y="1026" type="curve" smooth="yes"/>
      <point x="313" y="1344"/>
      <point x="410" y="1572"/>
      <point x="744" y="1572" type="curve" smooth="yes"/>
      <point x="896" y="1572"/>
      <point x="964" y="1528"/>
      <point x="1018" y="1473" type="curve" smooth="no"/>
      <point x="960" y="1343" type="line" smooth="no"/>
      <point x="919" y="1381"/>
      <point x="867" y="1418"/>
      <point x="751" y="1418" type="curve" smooth="yes"/>
      <point x="541.99" y="1418"/>
      <point x="504" y="1253"/>
      <point x="504" y="1028" type="curve" smooth="no"/>
      <point x="508" y="903" type="line" smooth="no"/>
      <point x="874" y="903" type="line" smooth="no"/>
      <point x="874" y="756" type="line" smooth="no"/>
      <point x="511" y="756" type="line" smooth="no"/>
      <point x="511" y="605" type="line" smooth="yes"/>
      <point x="511" y="421"/>
      <point x="501" y="231"/>
      <point x="401" y="153" type="curve" smooth="no"/>
      <point x="1038" y="153" type="line" smooth="no"/>
    </contour>
  </outline>
</glyph>
<glyph name="currency" format="1">
  <advance width="1229"/>
  <unicode hex="00A4"/>
  <outline>
    <contour>
      <point x="276" y="715" type="curve" smooth="yes"/>
      <point x="276" y="517"/>
      <point x="392" y="373"/>
      <point x="591" y="373" type="curve" smooth="yes"/>
      <point x="790" y="373"/>
      <point x="901" y="519"/>
      <point x="901" y="716" type="curve" smooth="yes"/>
      <point x="901" y="919"/>
      <point x="792" y="1062"/>
      <point x="587" y="1062" type="curve" smooth="yes"/>
      <point x="389" y="1062"/>
      <point x="276" y="911"/>
    </contour>
    <contour>
      <point x="773" y="1106" type="line"/>
      <point x="916" y="1043"/>
      <point x="1002" y="922"/>
      <point x="1002" y="720" type="curve"/>
      <point x="1003" y="719" type="line"/>
      <point x="1003" y="554"/>
      <point x="933" y="429"/>
      <point x="830" y="363" type="curve"/>
      <point x="996" y="60" type="line"/>
      <point x="958" y="42" type="line"/>
      <point x="792" y="342" type="line"/>
      <point x="739" y="318"/>
      <point x="679" y="296"/>
      <point x="606" y="296" type="curve" smooth="yes"/>
      <point x="554" y="296"/>
      <point x="505" y="298"/>
      <point x="463" y="310" type="curve"/>
      <point x="357" y="42" type="line"/>
      <point x="316" y="60" type="line"/>
      <point x="419" y="326" type="line"/>
      <point x="272" y="383"/>
      <point x="174" y="512"/>
      <point x="174" y="712" type="curve" smooth="yes"/>
      <point x="174" y="898"/>
      <point x="252" y="1027"/>
      <point x="377" y="1093" type="curve"/>
      <point x="210" y="1395" type="line"/>
      <point x="254" y="1412" type="line"/>
      <point x="420" y="1110" type="line"/>
      <point x="464" y="1130"/>
      <point x="516" y="1141"/>
      <point x="576" y="1141" type="curve" smooth="yes"/>
      <point x="631" y="1141"/>
      <point x="682" y="1134"/>
      <point x="728" y="1122" type="curve"/>
      <point x="842" y="1412" type="line"/>
      <point x="888" y="1395" type="line"/>
    </contour>
  </outline>
</glyph>
<glyph name="yen" format="1">
  <advance width="1229"/>
  <unicode hex="00a5"/>
  <outline>
    <contour>
      <point x="611" y="0" type="line" smooth="no"/>
      <point x="611" y="307" type="line" smooth="no"/>
      <point x="171" y="307" type="line" smooth="no"/>
      <point x="159" y="459" type="line" smooth="no"/>
      <point x="610" y="459" type="line" smooth="no"/>
      <point x="610" y="623" type="line" smooth="no"/>
      <point x="163" y="623" type="line" smooth="no"/>
      <point x="163" y="778" type="line" smooth="no"/>
      <point x="571" y="778" type="line" smooth="no"/>
      <point x="78" y="1541" type="line" smooth="no"/>
      <point x="305" y="1541" type="line" smooth="no"/>
      <point x="443" y="1314"/>
      <point x="581" y="1095"/>
      <point x="715" y="864" type="curve" smooth="no"/>
      <point x="1127" y="1541" type="line" smooth="no"/>
      <point x="1334" y="1541" type="line" smooth="no"/>
      <point x="830" y="778" type="line" smooth="no"/>
      <point x="1232" y="778" type="line" smooth="no"/>
      <point x="1232" y="623" type="line" smooth="no"/>
      <point x="800" y="623" type="line" smooth="no"/>
      <point x="800" y="459" type="line" smooth="no"/>
      <point x="1236" y="459" type="line" smooth="no"/>
      <point x="1236" y="307" type="line" smooth="no"/>
      <point x="803" y="307" type="line" smooth="no"/>
      <point x="803" y="0" type="line" smooth="no"/>
    </contour>
  </outline>
</glyph>
<glyph name="brokenbar" format="1">
  <advance width="1229"/>
  <unicode hex="00a6"/>
  <outline>
    <contour>
      <point x="539" y="1677" type="line" smooth="no"/>
      <point x="711" y="1677" type="line" smooth="no"/>
      <point x="711" y="735" type="line" smooth="no"/>
      <point x="539" y="735" type="line" smooth="no"/>
    </contour>
    <contour>
      <point x="539" y="427" type="line" smooth="no"/>
      <point x="711" y="427" type="line" smooth="no"/>
      <point x="711" y="-533" type="line" smooth="no"/>
      <point x="539" y="-533" type="line" smooth="no"/>
    </contour>
  </outline>
</glyph>
<glyph name="guillemotleft" format="1">
  <advance width="1229"/>
  <unicode hex="00ab"/>
  <outline>
    <contour>
      <point x="1086" y="992" type="line" smooth="no"/>
      <point x="794" y="588" type="line" smooth="no"/>
      <point x="1077" y="185" type="line" smooth="no"/>
      <point x="904" y="185" type="line" smooth="no"/>
      <point x="607" y="588" type="line" smooth="no"/>
      <point x="910" y="992" type="line" smooth="no"/>
    </contour>
    <contour>
      <point x="679" y="992" type="line" smooth="no"/>
      <point x="386" y="588" type="line" smooth="no"/>
      <point x="668" y="185" type="line" smooth="no"/>
      <point x="495" y="185" type="line" smooth="no"/>
      <point x="197" y="588" type="line" smooth="no"/>
      <point x="502" y="992" type="line" smooth="no"/>
    </contour>
  </outline>
</glyph>
<glyph name="macron" format="1">
  <advance width="1229"/>
  <unicode hex="00af"/>
  <outline>
    <contour>
      <point x="326" y="1499" type="line" smooth="no"/>
      <point x="326" y="1639" type="line" smooth="no"/>
      <point x="1273" y="1639" type="line" smooth="no"/>
      <point x="1273" y="1499" type="line" smooth="no"/>
    </contour>
  </outline>
</glyph>
<glyph name="degree" format="1">
  <advance width="1229"/>
  <unicode hex="00B0"/>
  <outline>
    <contour>
      <point x="1006" y="1248" type="curve" smooth="yes"/>
      <point x="1006" y="1060"/>
      <point x="840" y="929"/>
      <point x="653" y="929" type="curve" smooth="yes"/>
      <point x="440" y="929"/>
      <point x="299" y="1096"/>
      <point x="299" y="1248" type="curve" smooth="yes"/>
      <point x="299" y="1437"/>
      <point x="464" y="1567"/>
      <point x="653" y="1567" type="curve" smooth="yes"/>
      <point x="865" y="1567"/>
      <point x="1006" y="1405"/>
    </contour>
    <contour>
      <point x="653" y="1054" type="curve" smooth="yes"/>
      <point x="770" y="1054"/>
      <point x="868" y="1134"/>
      <point x="868" y="1250" type="curve" smooth="yes"/>
      <point x="868" y="1366"/>
      <point x="769" y="1442"/>
      <point x="653" y="1442" type="curve" smooth="yes"/>
      <point x="538" y="1442"/>
      <point x="438" y="1365"/>
      <point x="438" y="1250" type="curve" smooth="yes"/>
      <point x="438" y="1134"/>
      <point x="536" y="1054"/>
    </contour>
  </outline>
</glyph>
<glyph name="plusminus" format="1">
  <advance width="1229"/>
  <unicode hex="00B1"/>
  <outline>
    <contour>
      <point x="152" y="150" type="line"/>
      <point x="1312" y="150" type="line"/>
      <point x="1312" y="0" type="line"/>
      <point x="152" y="0" type="line"/>
    </contour>
    <contour>
      <point x="644" y="1201" type="line"/>
      <point x="810" y="1201" type="line"/>
      <point x="810" y="795" type="line"/>
      <point x="1309" y="795" type="line"/>
      <point x="1309" y="645" type="line"/>
      <point x="813" y="645" type="line"/>
      <point x="813" y="242" type="line"/>
      <point x="647" y="242" type="line"/>
      <point x="647" y="645" type="line"/>
      <point x="152" y="645" type="line"/>
      <point x="152" y="795" type="line"/>
      <point x="644" y="795" type="line"/>
    </contour>
  </outline>
</glyph>
<glyph name="acute" format="1">
  <advance width="1229"/>
  <unicode hex="00B4"/>
  <outline>
    <contour>
      <point x="418" y="1268" type="line"/>
      <point x="679" y="1705" type="line"/>
      <point x="911" y="1705" type="line"/>
      <point x="560" y="1268" type="line"/>
    </contour>
  </outline>
</glyph>
<glyph name="periodcentered" format="1">
  <advance width="1229"/>
  <unicode hex="00b7"/>
  <outline>
    <contour>
      <point x="487" y="557" type="line" smooth="no"/>
      <point x="487" y="785" type="line" smooth="no"/>
      <point x="728" y="785" type="line" smooth="no"/>
      <point x="728" y="557" type="line" smooth="no"/>
    </contour>
  </outline>
</glyph>
<glyph name="uni00B9" format="1">
  <advance width="1229"/>
  <unicode hex="00b9"/>
  <outline>
    <contour>
      <point x="564" y="1381" type="line" smooth="no"/>
      <point x="509" y="1353"/>
      <point x="455" y="1329"/>
      <point x="396" y="1306" type="curve" smooth="no"/>
      <point x="397" y="1447" type="line" smooth="no"/>
      <point x="466" y="1470"/>
      <point x="524" y="1498"/>
      <point x="582" y="1533" type="curve" smooth="no"/>
      <point x="698" y="1549" type="line" smooth="no"/>
      <point x="698" y="781" type="line" smooth="no"/>
      <point x="833" y="781" type="line" smooth="no"/>
      <point x="833" y="656" type="line" smooth="no"/>
      <point x="430" y="656" type="line" smooth="no"/>
      <point x="430" y="785" type="line" smooth="no"/>
      <point x="564" y="785" type="line" smooth="no"/>
    </contour>
  </outline>
</glyph>
<glyph name="ordmasculine" format="1">
  <advance width="1229"/>
  <unicode hex="00BA"/>
  <outline>
    <contour>
      <point x="684" y="950" type="curve" smooth="yes"/>
      <point x="837" y="950"/>
      <point x="927" y="1062"/>
      <point x="927" y="1214" type="curve" smooth="yes"/>
      <point x="927" y="1376"/>
      <point x="845" y="1486"/>
      <point x="681" y="1486" type="curve" smooth="yes"/>
      <point x="522" y="1486"/>
      <point x="437" y="1375"/>
      <point x="437" y="1218" type="curve" smooth="yes"/>
      <point x="437" y="1059"/>
      <point x="523" y="950"/>
    </contour>
    <contour>
      <point x="684" y="833" type="curve" smooth="yes"/>
      <point x="440" y="833"/>
      <point x="281" y="977"/>
      <point x="281" y="1220" type="curve" smooth="yes"/>
      <point x="281" y="1456"/>
      <point x="444" y="1602"/>
      <point x="682" y="1602" type="curve" smooth="yes"/>
      <point x="926" y="1602"/>
      <point x="1080" y="1459"/>
      <point x="1080" y="1217" type="curve" smooth="yes"/>
      <point x="1080" y="982"/>
      <point x="921" y="833"/>
    </contour>
  </outline>
</glyph>
<glyph name="guillemotright" format="1">
  <advance width="1229"/>
  <unicode hex="00bb"/>
  <outline>
    <contour>
      <point x="636" y="185" type="line" smooth="no"/>
      <point x="926" y="589" type="line" smooth="no"/>
      <point x="645" y="992" type="line" smooth="no"/>
      <point x="817" y="992" type="line" smooth="no"/>
      <point x="1116" y="589" type="line" smooth="no"/>
      <point x="809" y="185" type="line" smooth="no"/>
    </contour>
    <contour>
      <point x="197" y="185" type="line" smooth="no"/>
      <point x="489" y="589" type="line" smooth="no"/>
      <point x="203" y="992" type="line" smooth="no"/>
      <point x="380" y="992" type="line" smooth="no"/>
      <point x="678" y="589" type="line" smooth="no"/>
      <point x="373" y="185" type="line" smooth="no"/>
    </contour>
  </outline>
</glyph>
<glyph name="questiondown" format="1">
  <advance width="1229"/>
  <unicode hex="00BF"/>
  <outline>
    <contour>
      <point x="799" y="1604" type="line"/>
      <point x="799" y="1376" type="line"/>
      <point x="557" y="1376" type="line"/>
      <point x="557" y="1604" type="line"/>
    </contour>
    <contour>
      <point x="168" y="361" type="curve" smooth="yes"/>
      <point x="168" y="669.388"/>
      <point x="604" y="784.555"/>
      <point x="604" y="1037" type="curve" smooth="yes"/>
      <point x="604" y="1092"/>
      <point x="595" y="1146"/>
      <point x="586" y="1193" type="curve"/>
      <point x="767" y="1193" type="line"/>
      <point x="774" y="1136"/>
      <point x="778" y="1080"/>
      <point x="778" y="1024" type="curve"/>
      <point x="779" y="1023" type="line"/>
      <point x="779" y="805"/>
      <point x="576" y="712"/>
      <point x="465" y="600" type="curve" smooth="yes"/>
      <point x="409" y="544"/>
      <point x="355" y="475"/>
      <point x="355" y="371" type="curve" smooth="yes"/>
      <point x="355" y="199"/>
      <point x="509" y="142"/>
      <point x="680" y="142" type="curve" smooth="yes"/>
      <point x="790" y="142"/>
      <point x="883" y="175"/>
      <point x="959" y="216" type="curve"/>
      <point x="959" y="58" type="line"/>
      <point x="882" y="21"/>
      <point x="788" y="-13"/>
      <point x="680" y="-13" type="curve" smooth="yes"/>
      <point x="403" y="-13"/>
      <point x="168" y="84"/>
    </contour>
  </outline>
</glyph>
<glyph name="AE" format="1">
  <advance width="1229"/>
  <unicode hex="00C6"/>
  <outline>
    <contour>
      <point x="612" y="1572" type="line"/>
      <point x="27" y="0" type="line"/>
      <point x="235" y="0" type="line"/>
      <point x="380" y="431" type="line"/>
      <point x="692" y="431" type="line"/>
      <point x="692" y="0" type="line"/>
      <point x="1182" y="0" type="line"/>
      <point x="1194" y="151" type="line"/>
      <point x="871" y="151" type="line"/>
      <point x="871" y="721" type="line"/>
      <point x="1166" y="721" type="line"/>
      <point x="1179" y="881" type="line"/>
      <point x="871" y="881" type="line"/>
      <point x="871" y="1411" type="line"/>
      <point x="1153" y="1411" type="line"/>
      <point x="1165" y="1572" type="line"/>
    </contour>
    <contour>
      <point x="692" y="591" type="line"/>
      <point x="441" y="591" type="line"/>
      <point x="692" y="1360" type="line"/>
    </contour>
    <contour>
      <point x="398" y="1495" type="move" name="top"/>
    </contour>
  </outline>
</glyph>
<glyph name="AE" format="1">
  <advance width="1229"/>
  <unicode hex="00c6"/>
  <outline>
    <contour>
      <point x="692" y="591" type="line" smooth="no"/>
      <point x="692" y="1360" type="line" smooth="no"/>
      <point x="441" y="591" type="line" smooth="no"/>
    </contour>
    <contour>
      <point x="612" y="1572" type="line" smooth="no"/>
      <point x="1165" y="1572" type="line" smooth="no"/>
      <point x="1153" y="1411" type="line" smooth="no"/>
      <point x="871" y="1411" type="line" smooth="no"/>
      <point x="871" y="881" type="line" smooth="no"/>
      <point x="1179" y="881" type="line" smooth="no"/>
      <point x="1166" y="721" type="line" smooth="no"/>
      <point x="871" y="721" type="line" smooth="no"/>
      <point x="871" y="151" type="line" smooth="no"/>
      <point x="1194" y="151" type="line" smooth="no"/>
      <point x="1182" y="0" type="line" smooth="no"/>
      <point x="692" y="0" type="line" smooth="no"/>
      <point x="692" y="431" type="line" smooth="no"/>
      <point x="380" y="431" type="line" smooth="no"/>
      <point x="235" y="0" type="line" smooth="no"/>
      <point x="27" y="0" type="line" smooth="no"/>
    </contour>
  </outline>
</glyph>
<glyph name="Thorn" format="1">
  <advance width="1229"/>
  <unicode hex="00de"/>
  <outline>
    <contour>
      <point x="655" y="643" type="line" smooth="yes"/>
      <point x="892" y="643"/>
      <point x="1075" y="719"/>
      <point x="1075" y="956" type="curve" smooth="yes"/>
      <point x="1075" y="1216"/>
      <point x="861" y="1264"/>
      <point x="603" y="1264" type="curve" smooth="yes"/>
      <point x="366" y="1264" type="line" smooth="no"/>
      <point x="366" y="643" type="line" smooth="no"/>
    </contour>
    <contour>
      <point x="1279" y="951" type="curve" smooth="yes"/>
      <point x="1279" y="504"/>
      <point x="814" y="481"/>
      <point x="366" y="481" type="curve" smooth="no"/>
      <point x="366" y="0" type="line" smooth="no"/>
      <point x="176" y="0" type="line" smooth="no"/>
      <point x="176" y="1581" type="line" smooth="no"/>
      <point x="366" y="1581" type="line" smooth="no"/>
      <point x="366" y="1424" type="line" smooth="no"/>
      <point x="832" y="1424"/>
      <point x="1279" y="1418"/>
    </contour>
  </outline>
</glyph>
<glyph name="divide" format="1">
  <advance width="1229"/>
  <unicode hex="00f7"/>
  <outline>
    <contour>
      <point x="619" y="948" type="line" smooth="no"/>
      <point x="619" y="1175" type="line" smooth="no"/>
      <point x="858" y="1175" type="line" smooth="no"/>
      <point x="858" y="948" type="line" smooth="no"/>
    </contour>
    <contour>
      <point x="619" y="22" type="line" smooth="no"/>
      <point x="619" y="251" type="line" smooth="no"/>
      <point x="858" y="251" type="line" smooth="no"/>
      <point x="858" y="22" type="line" smooth="no"/>
    </contour>
    <contour>
      <point x="152" y="677" type="line" smooth="no"/>
      <point x="1311" y="677" type="line" smooth="no"/>
      <point x="1311" y="526" type="line" smooth="no"/>
      <point x="152" y="526" type="line" smooth="no"/>
    </contour>
  </outline>
</glyph>
<glyph name="oslash" format="1">
  <advance width="1229"/>
  <unicode hex="00F8"/>
  <outline>
    <contour>
      <point x="322" y="-283" type="line"/>
      <point x="210" y="-242" type="line"/>
      <point x="920" y="1386" type="line"/>
      <point x="1032" y="1351" type="line"/>
    </contour>
    <contour>
      <point x="615" y="1130" type="curve" smooth="yes"/>
      <point x="944" y="1130"/>
      <point x="1110" y="883"/>
      <point x="1110" y="558" type="curve" smooth="yes"/>
      <point x="1110" y="210"/>
      <point x="905" y="-25"/>
      <point x="607" y="-25" type="curve" smooth="yes"/>
      <point x="284" y="-25"/>
      <point x="118" y="232"/>
      <point x="118" y="551" type="curve" smooth="yes"/>
      <point x="118" y="897"/>
      <point x="319" y="1130"/>
    </contour>
    <contour>
      <point x="301" y="550" type="curve" smooth="yes"/>
      <point x="301" y="343"/>
      <point x="385" y="129"/>
      <point x="613" y="129" type="curve" smooth="yes"/>
      <point x="848" y="129"/>
      <point x="927" y="342"/>
      <point x="927" y="553" type="curve" smooth="yes"/>
      <point x="927" y="763"/>
      <point x="849" y="977"/>
      <point x="613" y="977" type="curve" smooth="yes"/>
      <point x="385" y="977"/>
      <point x="301" y="757"/>
    </contour>
    <contour>
      <point x="615" y="1097" type="move" name="top"/>
    </contour>
  </outline>
</glyph>
<glyph name="thorn" format="1">
  <advance width="1229"/>
  <unicode hex="00FE"/>
  <outline>
    <contour>
      <point x="1048" y="565" type="curve" smooth="yes"/>
      <point x="1048" y="816"/>
      <point x="953" y="996"/>
      <point x="699" y="996" type="curve" smooth="yes"/>
      <point x="434" y="996"/>
      <point x="340" y="798"/>
      <point x="340" y="536" type="curve" smooth="yes"/>
      <point x="340" y="299"/>
      <point x="455" y="118"/>
      <point x="695" y="118" type="curve" smooth="yes"/>
      <point x="941" y="118"/>
      <point x="1048" y="321"/>
    </contour>
    <contour>
      <point x="342" y="957" type="line"/>
      <point x="425" y="1065"/>
      <point x="545" y="1141"/>
      <point x="723" y="1141" type="curve" smooth="yes"/>
      <point x="1063" y="1141"/>
      <point x="1246" y="908"/>
      <point x="1246" y="572" type="curve"/>
      <point x="1245" y="572" type="line"/>
      <point x="1245" y="215"/>
      <point x="1029" y="-25"/>
      <point x="728" y="-25" type="curve" smooth="yes"/>
      <point x="553" y="-25"/>
      <point x="426" y="44"/>
      <point x="341" y="146" type="curve"/>
      <point x="341" y="-464" type="line"/>
      <point x="158" y="-464" type="line"/>
      <point x="158" y="1580" type="line"/>
      <point x="342" y="1580" type="line"/>
    </contour>
  </outline>
</glyph>
<glyph name="dotlessi" format="1">
  <advance width="1229"/>
  <unicode hex="0131"/>
  <outline>
    <contour>
      <point x="266" y="953" type="line" smooth="no"/>
      <point x="266" y="1097" type="line" smooth="no"/>
      <point x="788" y="1097" type="line" smooth="no"/>
      <point x="788" y="144" type="line" smooth="no"/>
      <point x="1185" y="144" type="line" smooth="no"/>
      <point x="1185" y="0" type="line" smooth="no"/>
      <point x="197" y="0" type="line" smooth="no"/>
      <point x="197" y="144" type="line" smooth="no"/>
      <point x="606" y="144" type="line" smooth="no"/>
      <point x="606" y="953" type="line" smooth="no"/>
    </contour>
  </outline>
</glyph>
<glyph name="IJ" format="1">
  <advance width="1229"/>
  <unicode hex="0132"/>
  <outline>
    <contour>
      <point x="1366" y="134" type="line" smooth="no"/>
      <point x="1579" y="134" type="line" smooth="yes"/>
      <point x="1754" y="134"/>
      <point x="1803" y="212"/>
      <point x="1803" y="391" type="curve" smooth="yes"/>
      <point x="1803" y="1328" type="line" smooth="no"/>
      <point x="1458" y="1328" type="line" smooth="no"/>
      <point x="1458" y="1491" type="line" smooth="no"/>
      <point x="2289" y="1491" type="line" smooth="no"/>
      <point x="2289" y="1328" type="line" smooth="no"/>
      <point x="1990" y="1328" type="line" smooth="no"/>
      <point x="1990" y="443" type="line" smooth="yes"/>
      <point x="1990" y="121"/>
      <point x="1902" y="-26"/>
      <point x="1600" y="-26" type="curve" smooth="yes"/>
      <point x="1366" y="-26" type="line" smooth="no"/>
    </contour>
    <contour>
      <point x="194" y="1328" type="line" smooth="no"/>
      <point x="194" y="1491" type="line" smooth="no"/>
      <point x="1035" y="1491" type="line" smooth="no"/>
      <point x="1035" y="1328" type="line" smooth="no"/>
      <point x="704" y="1328" type="line" smooth="no"/>
      <point x="704" y="163" type="line" smooth="no"/>
      <point x="1035" y="163" type="line" smooth="no"/>
      <point x="1035" y="0" type="line" smooth="no"/>
      <point x="194" y="0" type="line" smooth="no"/>
      <point x="194" y="163" type="line" smooth="no"/>
      <point x="517" y="163" type="line" smooth="no"/>
      <point x="517" y="1328" type="line" smooth="no"/>
    </contour>
  </outline>
</glyph>
<glyph name="ij" format="1">
  <advance width="1229"/>
  <unicode hex="0133"/>
  <outline>
    <contour>
      <point x="1852" y="1370" type="line"/>
      <point x="1852" y="1569" type="line"/>
      <point x="2032" y="1569" type="line"/>
      <point x="2032" y="1370" type="line"/>
    </contour>
    <contour>
      <point x="1639" y="-155" type="line" smooth="yes"/>
      <point x="1825" y="-155"/>
      <point x="1850" y="-120"/>
      <point x="1850" y="127" type="curve" smooth="yes"/>
      <point x="1850" y="953" type="line"/>
      <point x="1365" y="953" type="line"/>
      <point x="1365" y="1097" type="line"/>
      <point x="2032" y="1097" type="line"/>
      <point x="2032" y="183" type="line" smooth="yes"/>
      <point x="2032" y="-143"/>
      <point x="2015" y="-313"/>
      <point x="1640" y="-313" type="curve" smooth="yes"/>
      <point x="1364" y="-313" type="line"/>
      <point x="1364" y="-155" type="line"/>
    </contour>
    <contour>
      <point x="606" y="1369" type="line"/>
      <point x="606" y="1568" type="line"/>
      <point x="788" y="1568" type="line"/>
      <point x="788" y="1369" type="line"/>
    </contour>
    <contour>
      <point x="266" y="953" type="line"/>
      <point x="266" y="1097" type="line"/>
      <point x="788" y="1097" type="line"/>
      <point x="788" y="144" type="line"/>
      <point x="1185" y="144" type="line"/>
      <point x="1185" y="0" type="line"/>
      <point x="197" y="0" type="line"/>
      <point x="197" y="144" type="line"/>
      <point x="606" y="144" type="line"/>
      <point x="606" y="953" type="line"/>
    </contour>
  </outline>
</glyph>
<glyph name="kgreenlandic" format="1">
  <advance width="1229"/>
  <unicode hex="0138"/>
  <outline>
    <contour>
      <point x="398" y="604" type="line"/>
      <point x="914" y="1113" type="line"/>
      <point x="1164" y="1113" type="line"/>
      <point x="576" y="555" type="line"/>
      <point x="1204" y="0" type="line"/>
      <point x="962" y="0" type="line"/>
      <point x="397" y="511" type="line"/>
      <point x="397" y="0" type="line"/>
      <point x="215" y="0" type="line"/>
      <point x="215" y="1114" type="line"/>
      <point x="398" y="1114" type="line"/>
    </contour>
  </outline>
</glyph>
<glyph name="ldot" format="1">
  <advance width="1229"/>
  <unicode hex="0140"/>
  <outline>
    <contour>
      <point x="1716" y="557" type="line" smooth="no"/>
      <point x="1716" y="785" type="line" smooth="no"/>
      <point x="1957" y="785" type="line" smooth="no"/>
      <point x="1957" y="557" type="line" smooth="no"/>
    </contour>
    <contour>
      <point x="195" y="1433" type="line" smooth="no"/>
      <point x="195" y="1585" type="line" smooth="no"/>
      <point x="788" y="1585" type="line" smooth="no"/>
      <point x="788" y="144" type="line" smooth="no"/>
      <point x="1259" y="144" type="line" smooth="no"/>
      <point x="1259" y="0" type="line" smooth="no"/>
      <point x="125" y="0" type="line" smooth="no"/>
      <point x="125" y="144" type="line" smooth="no"/>
      <point x="606" y="144" type="line" smooth="no"/>
      <point x="606" y="1433" type="line" smooth="no"/>
    </contour>
  </outline>
</glyph>
<glyph name="Lslash" format="1">
  <advance width="1229"/>
  <unicode hex="0141"/>
  <outline>
    <contour>
      <point x="11" y="531" type="line"/>
      <point x="11" y="680" type="line"/>
      <point x="830" y="1080" type="line"/>
      <point x="830" y="931" type="line"/>
    </contour>
    <contour>
      <point x="420" y="163" type="line"/>
      <point x="1129" y="163" type="line"/>
      <point x="1129" y="0" type="line"/>
      <point x="233" y="0" type="line"/>
      <point x="233" y="1491" type="line"/>
      <point x="420" y="1491" type="line"/>
    </contour>
  </outline>
</glyph>
<glyph name="Lslash" format="1">
  <advance width="1229"/>
  <unicode hex="0141"/>
  <outline>
    <contour>
      <point x="420" y="163" type="line"/>
      <point x="1129" y="163" type="line"/>
      <point x="1129" y="0" type="line"/>
      <point x="233" y="0" type="line"/>
      <point x="233" y="639.425" type="line"/>
      <point x="11" y="531" type="line"/>
      <point x="11" y="680" type="line"/>
      <point x="233" y="788.425" type="line"/>
      <point x="233" y="1491" type="line"/>
      <point x="420" y="1491" type="line"/>
      <point x="420" y="879.756" type="line"/>
      <point x="830" y="1080" type="line"/>
      <point x="830" y="931" type="line"/>
      <point x="420" y="730.756" type="line"/>
    </contour>
  </outline>
</glyph>
<glyph name="lslash" format="1">
  <advance width="1229"/>
  <unicode hex="0142"/>
  <outline>
    <contour>
      <point x="195" y="1433" type="line" smooth="no"/>
      <point x="195" y="1585" type="line" smooth="no"/>
      <point x="788" y="1585" type="line" smooth="no"/>
      <point x="788" y="915.897" type="line" smooth="no"/>
      <point x="1124" y="1080" type="line" smooth="no"/>
      <point x="1124" y="931" type="line" smooth="no"/>
      <point x="788" y="766.897" type="line" smooth="no"/>
      <point x="788" y="144" type="line" smooth="no"/>
      <point x="1259" y="144" type="line" smooth="no"/>
      <point x="1259" y="0" type="line" smooth="no"/>
      <point x="125" y="0" type="line" smooth="no"/>
      <point x="125" y="144" type="line" smooth="no"/>
      <point x="606" y="144" type="line" smooth="no"/>
      <point x="606" y="678.009" type="line" smooth="no"/>
      <point x="305" y="531" type="line" smooth="no"/>
      <point x="305" y="680" type="line" smooth="no"/>
      <point x="606" y="827.009" type="line" smooth="no"/>
      <point x="606" y="1433" type="line" smooth="no"/>
    </contour>
  </outline>
</glyph>
<glyph name="OE" format="1">
  <advance width="1229"/>
  <unicode hex="0152"/>
  <outline>
    <contour>
      <point x="243" y="791" type="curve" smooth="yes"/>
      <point x="243" y="491"/>
      <point x="303" y="160"/>
      <point x="539" y="160" type="curve" smooth="yes"/>
      <point x="583" y="160" type="line"/>
      <point x="583" y="1389" type="line"/>
      <point x="539" y="1389" type="line" smooth="yes"/>
      <point x="283" y="1389"/>
      <point x="243" y="1056"/>
    </contour>
    <contour>
      <point x="806" y="717" type="line"/>
      <point x="806" y="171" type="line"/>
      <point x="1133" y="171" type="line"/>
      <point x="1116" y="0" type="line"/>
      <point x="539" y="0" type="line" smooth="yes"/>
      <point x="147" y="0"/>
      <point x="20" y="393"/>
      <point x="20" y="789" type="curve" smooth="yes"/>
      <point x="20" y="1210"/>
      <point x="180" y="1568"/>
      <point x="539" y="1568" type="curve" smooth="yes"/>
      <point x="1097" y="1568" type="line"/>
      <point x="1081" y="1397" type="line"/>
      <point x="806" y="1397" type="line"/>
      <point x="806" y="889" type="line"/>
      <point x="1047" y="889" type="line"/>
      <point x="1047" y="717" type="line"/>
    </contour>
  </outline>
</glyph>
<glyph name="uni021A" format="1">
  <advance width="1229"/>
  <unicode hex="021a"/>
  <outline>
    <contour>
      <point x="777" y="-176" type="line" smooth="no"/>
      <point x="596" y="-678" type="line" smooth="no"/>
      <point x="451" y="-678" type="line" smooth="no"/>
      <point x="569" y="-176" type="line" smooth="no"/>
    </contour>
    <contour>
      <point x="1199" y="1491" type="line" smooth="no"/>
      <point x="1199" y="1328" type="line" smooth="no"/>
      <point x="705" y="1328" type="line" smooth="no"/>
      <point x="705" y="0" type="line" smooth="no"/>
      <point x="518" y="0" type="line" smooth="no"/>
      <point x="518" y="1328" type="line" smooth="no"/>
      <point x="30" y="1328" type="line" smooth="no"/>
      <point x="30" y="1491" type="line" smooth="no"/>
    </contour>
  </outline>
</glyph>
<glyph name="uni021A" format="1">
  <advance width="1229"/>
  <unicode hex="021A"/>
  <outline>
    <contour>
      <point x="777" y="-176" type="line"/>
      <point x="596" y="-678" type="line"/>
      <point x="451" y="-678" type="line"/>
      <point x="569" y="-176" type="line"/>
    </contour>
    <contour>
      <point x="1199" y="1491" type="line"/>
      <point x="1199" y="1328" type="line"/>
      <point x="705" y="1328" type="line"/>
      <point x="705" y="0" type="line"/>
      <point x="518" y="0" type="line"/>
      <point x="518" y="1328" type="line"/>
      <point x="30" y="1328" type="line"/>
      <point x="30" y="1491" type="line"/>
    </contour>
  </outline>
</glyph>
<glyph name="uni021B" format="1">
  <advance width="1229"/>
  <unicode hex="021b"/>
  <outline>
    <contour>
      <point x="788" y="-176" type="line" smooth="no"/>
      <point x="607" y="-678" type="line" smooth="no"/>
      <point x="462" y="-678" type="line" smooth="no"/>
      <point x="580" y="-176" type="line" smooth="no"/>
    </contour>
    <contour>
      <point x="611" y="953" type="line" smooth="no"/>
      <point x="611" y="442" type="line" smooth="yes"/>
      <point x="611" y="218"/>
      <point x="704" y="144"/>
      <point x="925" y="144" type="curve" smooth="yes"/>
      <point x="1112" y="144" type="line" smooth="no"/>
      <point x="1112" y="0" type="line" smooth="no"/>
      <point x="932" y="0" type="line" smooth="yes"/>
      <point x="539" y="0"/>
      <point x="429" y="128"/>
      <point x="429" y="498" type="curve" smooth="yes"/>
      <point x="429" y="953" type="line" smooth="no"/>
      <point x="139" y="953" type="line" smooth="no"/>
      <point x="139" y="1097" type="line" smooth="no"/>
      <point x="429" y="1097" type="line" smooth="no"/>
      <point x="429" y="1515" type="line" smooth="no"/>
      <point x="611" y="1569" type="line" smooth="no"/>
      <point x="611" y="1097" type="line" smooth="no"/>
      <point x="1101" y="1097" type="line" smooth="no"/>
      <point x="1101" y="953" type="line" smooth="no"/>
    </contour>
  </outline>
</glyph>
<glyph name="uni021B" format="1">
  <advance width="1229"/>
  <unicode hex="021B"/>
  <outline>
    <contour>
      <point x="788" y="-176" type="line"/>
      <point x="607" y="-678" type="line"/>
      <point x="462" y="-678" type="line"/>
      <point x="580" y="-176" type="line"/>
    </contour>
    <contour>
      <point x="611" y="953" type="line"/>
      <point x="611" y="442" type="line" smooth="yes"/>
      <point x="611" y="218"/>
      <point x="704" y="144"/>
      <point x="925" y="144" type="curve" smooth="yes"/>
      <point x="1112" y="144" type="line"/>
      <point x="1112" y="0" type="line"/>
      <point x="932" y="0" type="line" smooth="yes"/>
      <point x="539" y="0"/>
      <point x="429" y="128"/>
      <point x="429" y="498" type="curve" smooth="yes"/>
      <point x="429" y="953" type="line"/>
      <point x="139" y="953" type="line"/>
      <point x="139" y="1097" type="line"/>
      <point x="429" y="1097" type="line"/>
      <point x="429" y="1515" type="line"/>
      <point x="611" y="1569" type="line"/>
      <point x="611" y="1097" type="line"/>
      <point x="1101" y="1097" type="line"/>
      <point x="1101" y="953" type="line"/>
    </contour>
  </outline>
</glyph>
<glyph name="uni0237" format="1">
  <advance width="1229"/>
  <unicode hex="0237"/>
  <outline>
    <contour>
      <point x="410" y="-155" type="line" smooth="yes"/>
      <point x="596" y="-155"/>
      <point x="621" y="-120"/>
      <point x="621" y="127" type="curve" smooth="yes"/>
      <point x="621" y="953" type="line"/>
      <point x="136" y="953" type="line"/>
      <point x="136" y="1097" type="line"/>
      <point x="803" y="1097" type="line"/>
      <point x="803" y="183" type="line" smooth="yes"/>
      <point x="803" y="-143"/>
      <point x="786" y="-313"/>
      <point x="411" y="-313" type="curve" smooth="yes"/>
      <point x="135" y="-313" type="line"/>
      <point x="135" y="-155" type="line"/>
    </contour>
  </outline>
</glyph>
<glyph name="circumflex" format="1">
  <advance width="1229"/>
  <unicode hex="02c6"/>
  <outline>
    <contour>
      <point x="709" y="1615" type="line" smooth="no"/>
      <point x="968" y="1266" type="line" smooth="no"/>
      <point x="825" y="1266" type="line" smooth="no"/>
      <point x="621" y="1501" type="line" smooth="no"/>
      <point x="419" y="1266" type="line" smooth="no"/>
      <point x="283" y="1266" type="line" smooth="no"/>
      <point x="542" y="1615" type="line" smooth="no"/>
    </contour>
  </outline>
</glyph>
<glyph name="caron" format="1">
  <advance width="1229"/>
  <unicode hex="02c7"/>
  <outline>
    <contour>
      <point x="444" y="1614" type="line" smooth="no"/>
      <point x="632" y="1379" type="line" smooth="no"/>
      <point x="822" y="1614" type="line" smooth="no"/>
      <point x="993" y="1614" type="line" smooth="no"/>
      <point x="720" y="1266" type="line" smooth="no"/>
      <point x="555" y="1266" type="line" smooth="no"/>
      <point x="283" y="1614" type="line" smooth="no"/>
    </contour>
  </outline>
</glyph>
<glyph name="breve" format="1">
  <advance width="1229"/>
  <unicode hex="02d8"/>
  <outline>
    <contour>
      <point x="411" y="1579" type="line" smooth="no"/>
      <point x="429" y="1482"/>
      <point x="506" y="1438"/>
      <point x="620" y="1438" type="curve" smooth="yes"/>
      <point x="734" y="1438"/>
      <point x="819" y="1488"/>
      <point x="843" y="1579" type="curve" smooth="no"/>
      <point x="940" y="1579" type="line" smooth="no"/>
      <point x="928" y="1409"/>
      <point x="812" y="1323"/>
      <point x="629" y="1323" type="curve" smooth="yes"/>
      <point x="441" y="1323"/>
      <point x="329" y="1405"/>
      <point x="313" y="1579" type="curve" smooth="no"/>
    </contour>
  </outline>
</glyph>
<glyph name="dotaccent" format="1">
  <advance width="1229"/>
  <unicode hex="02d9"/>
  <outline>
    <contour>
      <point x="508" y="1529" type="line" smooth="no"/>
      <point x="685" y="1529" type="line" smooth="no"/>
      <point x="685" y="1352" type="line" smooth="no"/>
      <point x="508" y="1352" type="line" smooth="no"/>
    </contour>
  </outline>
</glyph>
<glyph name="ring" format="1">
  <advance width="1229"/>
  <unicode hex="02DA"/>
  <outline>
    <contour>
      <point x="852" y="1455" type="curve" smooth="yes"/>
      <point x="852" y="1333"/>
      <point x="744" y="1247"/>
      <point x="622" y="1247" type="curve" smooth="yes"/>
      <point x="495" y="1247"/>
      <point x="387" y="1329"/>
      <point x="387" y="1455" type="curve" smooth="yes"/>
      <point x="387" y="1581"/>
      <point x="494" y="1661"/>
      <point x="621" y="1661" type="curve" smooth="yes"/>
      <point x="745" y="1661"/>
      <point x="852" y="1579"/>
    </contour>
    <contour>
      <point x="632" y="1568" type="curve" smooth="yes"/>
      <point x="557" y="1568"/>
      <point x="497" y="1529"/>
      <point x="497" y="1454" type="curve" smooth="yes"/>
      <point x="497" y="1393"/>
      <point x="541" y="1340"/>
      <point x="603" y="1340" type="curve" smooth="yes"/>
      <point x="679" y="1340"/>
      <point x="743" y="1379"/>
      <point x="743" y="1456" type="curve" smooth="yes"/>
      <point x="743" y="1516"/>
      <point x="693" y="1568"/>
    </contour>
  </outline>
</glyph>
<glyph name="ogonek" format="1">
  <advance width="1229"/>
  <unicode hex="02DB"/>
  <outline>
    <contour>
      <point x="414" y="-244" type="curve" smooth="yes"/>
      <point x="414" y="-104"/>
      <point x="555" y="-33"/>
      <point x="653" y="13" type="curve"/>
      <point x="795" y="0" type="line"/>
      <point x="708" y="-50"/>
      <point x="569" y="-120"/>
      <point x="569" y="-212" type="curve" smooth="yes"/>
      <point x="569" y="-280"/>
      <point x="631" y="-306"/>
      <point x="699" y="-306" type="curve" smooth="yes"/>
      <point x="756" y="-306"/>
      <point x="806" y="-288"/>
      <point x="850" y="-271" type="curve"/>
      <point x="850" y="-392" type="line"/>
      <point x="799" y="-413"/>
      <point x="744" y="-424"/>
      <point x="687" y="-424" type="curve" smooth="yes"/>
      <point x="546" y="-424"/>
      <point x="414" y="-385"/>
    </contour>
  </outline>
</glyph>
<glyph name="hungarumlaut" format="1">
  <advance width="1229"/>
  <unicode hex="02dd"/>
  <outline>
    <contour>
      <point x="246" y="1270" type="line" smooth="no"/>
      <point x="495" y="1607" type="line" smooth="no"/>
      <point x="685" y="1607" type="line" smooth="no"/>
      <point x="374" y="1270" type="line" smooth="no"/>
    </contour>
    <contour>
      <point x="539" y="1270" type="line" smooth="no"/>
      <point x="793" y="1607" type="line" smooth="no"/>
      <point x="983" y="1607" type="line" smooth="no"/>
      <point x="670" y="1270" type="line" smooth="no"/>
    </contour>
  </outline>
</glyph>
<glyph name="uni0307" format="1">
  <advance width="1229"/>
  <unicode hex="0307"/>
  <outline>
    <contour>
      <point x="526" y="1529" type="line"/>
      <point x="703" y="1529" type="line"/>
      <point x="703" y="1352" type="line"/>
      <point x="526" y="1352" type="line"/>
    </contour>
  </outline>
</glyph>
<glyph name="uni030F" format="1">
  <advance width="1229"/>
  <unicode hex="030f"/>
  <outline>
    <contour>
      <point x="395" y="1607" type="line" smooth="no"/>
      <point x="648" y="1270" type="line" smooth="no"/>
      <point x="518" y="1270" type="line" smooth="no"/>
      <point x="205" y="1607" type="line" smooth="no"/>
    </contour>
    <contour>
      <point x="736" y="1607" type="line" smooth="no"/>
      <point x="985" y="1270" type="line" smooth="no"/>
      <point x="857" y="1270" type="line" smooth="no"/>
      <point x="545" y="1607" type="line" smooth="no"/>
    </contour>
  </outline>
</glyph>
<glyph name="uni030F" format="1">
  <advance width="1229"/>
  <unicode hex="030F"/>
  <outline>
    <contour>
      <point x="395" y="1607" type="line"/>
      <point x="648" y="1270" type="line"/>
      <point x="518" y="1270" type="line"/>
      <point x="205" y="1607" type="line"/>
    </contour>
    <contour>
      <point x="736" y="1607" type="line"/>
      <point x="985" y="1270" type="line"/>
      <point x="857" y="1270" type="line"/>
      <point x="545" y="1607" type="line"/>
    </contour>
  </outline>
</glyph>
<glyph name="uni0311" format="1">
  <advance width="1229"/>
  <unicode hex="0311"/>
  <outline>
    <contour>
      <point x="830" y="1323" type="line" smooth="no"/>
      <point x="807" y="1414"/>
      <point x="721" y="1462"/>
      <point x="608" y="1462" type="curve" smooth="yes"/>
      <point x="497" y="1462"/>
      <point x="417" y="1417"/>
      <point x="399" y="1323" type="curve" smooth="no"/>
      <point x="301" y="1323" type="line" smooth="no"/>
      <point x="317" y="1497"/>
      <point x="429" y="1579"/>
      <point x="617" y="1579" type="curve" smooth="yes"/>
      <point x="797" y="1579"/>
      <point x="915" y="1491"/>
      <point x="927" y="1323" type="curve" smooth="no"/>
    </contour>
  </outline>
</glyph>
<glyph name="uni0326" format="1">
  <advance width="1229"/>
  <unicode hex="0326"/>
  <outline>
    <contour>
      <point x="777" y="-176" type="line" smooth="no"/>
      <point x="596" y="-678" type="line" smooth="no"/>
      <point x="451" y="-678" type="line" smooth="no"/>
      <point x="569" y="-176" type="line" smooth="no"/>
    </contour>
  </outline>
</glyph>
<glyph name="Omega" format="1">
  <advance width="1229"/>
  <unicode hex="03A9"/>
  <outline>
    <contour>
      <point x="1021" y="131" type="line"/>
      <point x="1244" y="275"/>
      <point x="1414" y="486"/>
      <point x="1414" y="824" type="curve" smooth="yes"/>
      <point x="1414" y="1193"/>
      <point x="1177" y="1421"/>
      <point x="861" y="1421" type="curve" smooth="yes"/>
      <point x="510" y="1421"/>
      <point x="295" y="1172"/>
      <point x="295" y="824" type="curve" smooth="yes"/>
      <point x="295" y="493"/>
      <point x="474" y="263"/>
      <point x="681" y="131" type="curve"/>
      <point x="686" y="0" type="line"/>
      <point x="87" y="0" type="line"/>
      <point x="74" y="150" type="line"/>
      <point x="452" y="149" type="line"/>
      <point x="239" y="299"/>
      <point x="97" y="515"/>
      <point x="97" y="870" type="curve" smooth="yes"/>
      <point x="97" y="1341"/>
      <point x="490" y="1573"/>
      <point x="865" y="1573" type="curve" smooth="yes"/>
      <point x="1343" y="1573"/>
      <point x="1610" y="1236"/>
      <point x="1610" y="838" type="curve" smooth="yes"/>
      <point x="1610" y="517"/>
      <point x="1434" y="294"/>
      <point x="1249" y="149" type="curve"/>
      <point x="1612" y="150" type="line"/>
      <point x="1602" y="0" type="line"/>
      <point x="1021" y="0" type="line"/>
    </contour>
    <contour>
      <point x="20" y="1491" type="move" name="topleft"/>
    </contour>
  </outline>
</glyph>
<glyph name="pi" format="1">
  <advance width="1229"/>
  <unicode hex="03c0"/>
  <outline>
    <contour>
      <point x="1322" y="7" type="curve" smooth="no"/>
      <point x="1274" y="-2"/>
      <point x="1223" y="-8"/>
      <point x="1168" y="-8" type="curve" smooth="yes"/>
      <point x="977" y="-8"/>
      <point x="938" y="115"/>
      <point x="938" y="303" type="curve" smooth="yes"/>
      <point x="938" y="984" type="line" smooth="no"/>
      <point x="527" y="984" type="line" smooth="no"/>
      <point x="507" y="692"/>
      <point x="482" y="372"/>
      <point x="418" y="120" type="curve" smooth="yes"/>
      <point x="405" y="69"/>
      <point x="391" y="29"/>
      <point x="374" y="0" type="curve" smooth="no"/>
      <point x="186" y="0" type="line" smooth="no"/>
      <point x="322" y="231"/>
      <point x="333" y="639"/>
      <point x="340" y="984" type="curve" smooth="no"/>
      <point x="222" y="980"/>
      <point x="119" y="961"/>
      <point x="33" y="918" type="curve" smooth="no"/>
      <point x="14" y="1061" type="line" smooth="no"/>
      <point x="82" y="1112"/>
      <point x="189" y="1129"/>
      <point x="306" y="1129" type="curve" smooth="yes"/>
      <point x="1340" y="1129" type="line" smooth="no"/>
      <point x="1340" y="984" type="line" smooth="no"/>
      <point x="1114" y="984" type="line" smooth="no"/>
      <point x="1114" y="313" type="line" smooth="yes"/>
      <point x="1114" y="223"/>
      <point x="1131" y="159"/>
      <point x="1222" y="159" type="curve" smooth="yes"/>
      <point x="1256" y="159"/>
      <point x="1283" y="166"/>
      <point x="1311" y="173" type="curve" smooth="no"/>
      <point x="1309" y="145"/>
      <point x="1307" y="118"/>
      <point x="1307" y="90" type="curve" smooth="yes"/>
      <point x="1307" y="62"/>
      <point x="1312" y="35"/>
    </contour>
  </outline>
</glyph>
<glyph name="endash" format="1">
  <advance width="1229"/>
  <unicode hex="2013"/>
  <outline>
    <contour>
      <point x="184" y="531" type="line"/>
      <point x="184" y="680" type="line"/>
      <point x="1391" y="680" type="line"/>
      <point x="1391" y="531" type="line"/>
    </contour>
  </outline>
</glyph>
<glyph name="emdash" format="1">
  <advance width="1229"/>
  <unicode hex="2014"/>
  <outline>
    <contour>
      <point x="-6" y="531" type="line"/>
      <point x="-6" y="680" type="line"/>
      <point x="1235" y="680" type="line"/>
      <point x="1235" y="531" type="line"/>
    </contour>
  </outline>
</glyph>
<glyph name="quoteleft" format="1">
  <advance width="1229"/>
  <unicode hex="2018"/>
  <outline>
    <contour>
      <point x="446" y="1110" type="line" smooth="no"/>
      <point x="617" y="1588" type="line" smooth="no"/>
      <point x="762" y="1588" type="line" smooth="no"/>
      <point x="647" y="1110" type="line" smooth="no"/>
    </contour>
  </outline>
</glyph>
<glyph name="quotesinglbase" format="1">
  <advance width="1229"/>
  <unicode hex="201A"/>
  <outline>
    <contour>
      <point x="773" y="218" type="line"/>
      <point x="604" y="-258" type="line"/>
      <point x="457" y="-258" type="line"/>
      <point x="574" y="218" type="line"/>
    </contour>
  </outline>
</glyph>
<glyph name="quotedblleft" format="1">
  <advance width="1229"/>
  <unicode hex="201c"/>
  <outline>
    <contour>
      <point x="233" y="1110" type="line" smooth="no"/>
      <point x="404" y="1588" type="line" smooth="no"/>
      <point x="551" y="1588" type="line" smooth="no"/>
      <point x="435" y="1110" type="line" smooth="no"/>
    </contour>
    <contour>
      <point x="620" y="1110" type="line" smooth="no"/>
      <point x="790" y="1588" type="line" smooth="no"/>
      <point x="938" y="1588" type="line" smooth="no"/>
      <point x="822" y="1110" type="line" smooth="no"/>
    </contour>
  </outline>
</glyph>
<glyph name="quotedblright" format="1">
  <advance width="1229"/>
  <unicode hex="201D"/>
  <outline>
    <contour>
      <point x="913" y="1588" type="line"/>
      <point x="742" y="1110" type="line"/>
      <point x="595" y="1110" type="line"/>
      <point x="712" y="1588" type="line"/>
    </contour>
    <contour>
      <point x="550" y="1588" type="line"/>
      <point x="380" y="1110" type="line"/>
      <point x="233" y="1110" type="line"/>
      <point x="349" y="1588" type="line"/>
    </contour>
  </outline>
</glyph>
<glyph name="quotedblbase" format="1">
  <advance width="1229"/>
  <unicode hex="201E"/>
  <outline>
    <contour>
      <point x="958" y="218" type="line"/>
      <point x="787" y="-258" type="line"/>
      <point x="641" y="-258" type="line"/>
      <point x="755" y="218" type="line"/>
    </contour>
    <contour>
      <point x="561" y="218" type="line"/>
      <point x="391" y="-258" type="line"/>
      <point x="244" y="-258" type="line"/>
      <point x="360" y="218" type="line"/>
    </contour>
  </outline>
</glyph>
<glyph name="dagger" format="1">
  <advance width="1229"/>
  <unicode hex="2020"/>
  <outline>
    <contour>
      <point x="240" y="1014" type="line" smooth="no"/>
      <point x="240" y="1158" type="line" smooth="no"/>
      <point x="601" y="1158" type="line" smooth="no"/>
      <point x="601" y="1575" type="line" smooth="no"/>
      <point x="758" y="1575" type="line" smooth="no"/>
      <point x="758" y="1158" type="line" smooth="no"/>
      <point x="1139" y="1158" type="line" smooth="no"/>
      <point x="1139" y="1014" type="line" smooth="no"/>
      <point x="743" y="1014" type="line" smooth="no"/>
      <point x="743" y="123" type="line" smooth="no"/>
      <point x="601" y="123" type="line" smooth="no"/>
      <point x="601" y="1014" type="line" smooth="no"/>
    </contour>
  </outline>
</glyph>
<glyph name="daggerdbl" format="1">
  <advance width="1229"/>
  <unicode hex="2021"/>
  <outline>
    <contour>
      <point x="236" y="1067" type="line"/>
      <point x="236" y="1211" type="line"/>
      <point x="617" y="1211" type="line"/>
      <point x="589" y="1575" type="line"/>
      <point x="754" y="1575" type="line"/>
      <point x="754" y="1211" type="line"/>
      <point x="1135" y="1211" type="line"/>
      <point x="1135" y="1067" type="line"/>
      <point x="746" y="1067" type="line"/>
      <point x="746" y="610" type="line"/>
      <point x="1127" y="610" type="line"/>
      <point x="1127" y="472" type="line"/>
      <point x="746" y="472" type="line"/>
      <point x="775" y="123" type="line"/>
      <point x="586" y="123" type="line"/>
      <point x="610" y="472" type="line"/>
      <point x="229" y="472" type="line"/>
      <point x="229" y="610" type="line"/>
      <point x="610" y="610" type="line"/>
      <point x="610" y="1067" type="line"/>
    </contour>
  </outline>
</glyph>
<glyph name="ellipsis" format="1">
  <advance width="1229"/>
  <unicode hex="2026"/>
  <outline>
    <contour>
      <point x="675" y="-12" type="line" smooth="no"/>
      <point x="675" y="216" type="line" smooth="no"/>
      <point x="916" y="216" type="line" smooth="no"/>
      <point x="916" y="-12" type="line" smooth="no"/>
    </contour>
    <contour>
      <point x="1274" y="-12" type="line" smooth="no"/>
      <point x="1274" y="216" type="line" smooth="no"/>
      <point x="1514" y="216" type="line" smooth="no"/>
      <point x="1514" y="-12" type="line" smooth="no"/>
    </contour>
    <contour>
      <point x="78" y="-12" type="line" smooth="no"/>
      <point x="78" y="216" type="line" smooth="no"/>
      <point x="319" y="216" type="line" smooth="no"/>
      <point x="319" y="-12" type="line" smooth="no"/>
    </contour>
  </outline>
</glyph>
<glyph name="guilsinglright" format="1">
  <advance width="1229"/>
  <unicode hex="203a"/>
  <outline>
    <contour>
      <point x="401" y="185" type="line" smooth="no"/>
      <point x="691" y="589" type="line" smooth="no"/>
      <point x="409" y="992" type="line" smooth="no"/>
      <point x="582" y="992" type="line" smooth="no"/>
      <point x="881" y="589" type="line" smooth="no"/>
      <point x="575" y="185" type="line" smooth="no"/>
    </contour>
  </outline>
</glyph>
<glyph name="uni2074" format="1">
  <advance width="1229"/>
  <unicode hex="2074"/>
  <outline>
    <contour>
      <point x="708" y="988" type="line"/>
      <point x="708" y="1058"/>
      <point x="707" y="1127"/>
      <point x="707" y="1196" type="curve" smooth="yes"/>
      <point x="707" y="1247"/>
      <point x="707" y="1298"/>
      <point x="710" y="1350" type="curve"/>
      <point x="445" y="988" type="line"/>
    </contour>
    <contour>
      <point x="710" y="872" type="line"/>
      <point x="293" y="872" type="line"/>
      <point x="293" y="970" type="line"/>
      <point x="696" y="1533" type="line"/>
      <point x="845" y="1533" type="line"/>
      <point x="845" y="988" type="line"/>
      <point x="964" y="988" type="line"/>
      <point x="977" y="872" type="line"/>
      <point x="843" y="872" type="line"/>
      <point x="843" y="668" type="line"/>
      <point x="710" y="668" type="line"/>
    </contour>
  </outline>
</glyph>
<glyph name="uni2206" format="1">
  <advance width="1229"/>
  <unicode hex="2206"/>
  <outline>
    <contour>
      <point x="1035" y="176" type="line" smooth="no"/>
      <point x="893" y="555"/>
      <point x="722" y="918"/>
      <point x="607" y="1322" type="curve" smooth="no"/>
      <point x="480" y="933"/>
      <point x="327" y="556"/>
      <point x="189" y="176" type="curve" smooth="no"/>
    </contour>
    <contour>
      <point x="-62" y="0" type="line" smooth="no"/>
      <point x="-62" y="87" type="line" smooth="no"/>
      <point x="514" y="1552" type="line" smooth="no"/>
      <point x="715" y="1552" type="line" smooth="no"/>
      <point x="1291" y="87" type="line" smooth="no"/>
      <point x="1291" y="0" type="line" smooth="no"/>
    </contour>
  </outline>
</glyph>
<glyph name="product" format="1">
  <advance width="1229"/>
  <unicode hex="220f"/>
  <outline>
    <contour>
      <point x="1503" y="1388" type="line" smooth="no"/>
      <point x="1503" y="-358" type="line" smooth="no"/>
      <point x="1306" y="-358" type="line" smooth="no"/>
      <point x="1306" y="1388" type="line" smooth="no"/>
      <point x="506" y="1388" type="line" smooth="no"/>
      <point x="506" y="-358" type="line" smooth="no"/>
      <point x="312" y="-358" type="line" smooth="no"/>
      <point x="312" y="1388" type="line" smooth="no"/>
      <point x="174" y="1388" type="line" smooth="no"/>
      <point x="156" y="1545" type="line" smooth="no"/>
      <point x="1647" y="1545" type="line" smooth="no"/>
      <point x="1629" y="1388" type="line" smooth="no"/>
    </contour>
  </outline>
</glyph>
<glyph name="summation" format="1">
  <advance width="1229"/>
  <unicode hex="2211"/>
  <outline>
    <contour>
      <point x="74" y="-358" type="line" smooth="no"/>
      <point x="74" y="-260" type="line" smooth="no"/>
      <point x="783" y="599" type="line" smooth="no"/>
      <point x="100" y="1442" type="line" smooth="no"/>
      <point x="100" y="1545" type="line" smooth="no"/>
      <point x="1311" y="1545" type="line" smooth="no"/>
      <point x="1311" y="1391" type="line" smooth="no"/>
      <point x="371" y="1391" type="line" smooth="no"/>
      <point x="1005" y="609" type="line" smooth="no"/>
      <point x="336" y="-197" type="line" smooth="no"/>
      <point x="1362" y="-197" type="line" smooth="no"/>
      <point x="1362" y="-358" type="line" smooth="no"/>
    </contour>
  </outline>
</glyph>
<glyph name="minus" format="1">
  <advance width="1229"/>
  <unicode hex="2212"/>
  <outline>
    <contour>
      <point x="1312" y="538" type="line"/>
      <point x="152" y="538" type="line"/>
      <point x="152" y="687" type="line"/>
      <point x="1312" y="687" type="line"/>
    </contour>
  </outline>
</glyph>
<glyph name="lessequal" format="1">
  <advance width="1229"/>
  <unicode hex="2264"/>
  <outline>
    <contour>
      <point x="152" y="9" type="line" smooth="no"/>
      <point x="152" y="143" type="line" smooth="no"/>
      <point x="1275" y="143" type="line" smooth="no"/>
      <point x="1275" y="9" type="line" smooth="no"/>
    </contour>
    <contour>
      <point x="191" y="723" type="line" smooth="no"/>
      <point x="191" y="811" type="line" smooth="no"/>
      <point x="1243" y="1323" type="line" smooth="no"/>
      <point x="1243" y="1172" type="line" smooth="no"/>
      <point x="386" y="771" type="line" smooth="no"/>
      <point x="1243" y="387" type="line" smooth="no"/>
      <point x="1243" y="235" type="line" smooth="no"/>
    </contour>
  </outline>
</glyph>
<glyph name="lozenge" format="1">
  <advance width="1229"/>
  <unicode hex="25ca"/>
  <outline>
    <contour>
      <point x="694" y="1437" type="curve" smooth="no"/>
      <point x="564" y="1210"/>
      <point x="424" y="997"/>
      <point x="289" y="774" type="curve" smooth="no"/>
      <point x="682" y="106" type="line" smooth="no"/>
      <point x="810" y="334"/>
      <point x="949" y="549"/>
      <point x="1084" y="772" type="curve" smooth="no"/>
      <point x="954" y="994"/>
      <point x="819" y="1211"/>
    </contour>
    <contour>
      <point x="740" y="-48" type="line" smooth="no"/>
      <point x="624" y="-48" type="line" smooth="no"/>
      <point x="125" y="772" type="line" smooth="no"/>
      <point x="631" y="1595" type="line" smooth="no"/>
      <point x="750" y="1595" type="line" smooth="no"/>
      <point x="1251" y="773" type="line" smooth="no"/>
    </contour>
  </outline>
</glyph>
<glyph name="uniF6C3" format="1">
  <advance width="1229"/>
  <unicode hex="f6c3"/>
  <outline>
    <contour>
      <point x="810" y="-152" type="line" smooth="no"/>
      <point x="629" y="-655" type="line" smooth="no"/>
      <point x="483" y="-655" type="line" smooth="no"/>
      <point x="602" y="-152" type="line" smooth="no"/>
    </contour>
  </outline>
</glyph>
<glyph name="uniFB01" format="1">
  <advance width="1229"/>
  <unicode hex="FB01"/>
  <outline>
    <contour>
      <point x="772" y="1481" type="line"/>
      <point x="742" y="1492"/>
      <point x="701" y="1497"/>
      <point x="661" y="1497" type="curve" smooth="yes"/>
      <point x="487" y="1497"/>
      <point x="470" y="1382"/>
      <point x="470" y="1229" type="curve" smooth="yes"/>
      <point x="470" y="1193"/>
      <point x="471" y="1154"/>
      <point x="471" y="1114" type="curve"/>
      <point x="1161" y="1114" type="line"/>
      <point x="1161" y="0" type="line"/>
      <point x="980" y="0" type="line"/>
      <point x="980" y="997" type="line"/>
      <point x="471" y="997" type="line"/>
      <point x="471" y="0" type="line"/>
      <point x="289" y="0" type="line"/>
      <point x="289" y="997" type="line"/>
      <point x="67" y="997" type="line"/>
      <point x="67" y="1114" type="line"/>
      <point x="289" y="1114" type="line"/>
      <point x="295" y="1410"/>
      <point x="317" y="1644"/>
      <point x="621" y="1644" type="curve" smooth="yes"/>
      <point x="675" y="1644"/>
      <point x="724" y="1631"/>
      <point x="770" y="1621" type="curve"/>
    </contour>
    <contour>
      <point x="1158" y="1418" type="line"/>
      <point x="987" y="1418" type="line"/>
      <point x="987" y="1587" type="line"/>
      <point x="1158" y="1587" type="line"/>
    </contour>
  </outline>
</glyph>
<glyph name="uniFB01" format="1">
  <advance width="1229"/>
  <unicode hex="FB01"/>
  <outline>
    <contour>
      <point x="1158" y="1418" type="line"/>
      <point x="987" y="1418" type="line"/>
      <point x="987" y="1587" type="line"/>
      <point x="1158" y="1587" type="line"/>
    </contour>
    <contour>
      <point x="772" y="1481" type="line"/>
      <point x="742" y="1492"/>
      <point x="701" y="1497"/>
      <point x="661" y="1497" type="curve" smooth="yes"/>
      <point x="487" y="1497"/>
      <point x="470" y="1382"/>
      <point x="470" y="1229" type="curve" smooth="yes"/>
      <point x="470" y="1193"/>
      <point x="471" y="1154"/>
      <point x="471" y="1114" type="curve"/>
      <point x="1161" y="1114" type="line"/>
      <point x="1161" y="0" type="line"/>
      <point x="980" y="0" type="line"/>
      <point x="980" y="997" type="line"/>
      <point x="471" y="997" type="line"/>
      <point x="471" y="0" type="line"/>
      <point x="289" y="0" type="line"/>
      <point x="289" y="997" type="line"/>
      <point x="67" y="997" type="line"/>
      <point x="67" y="1114" type="line"/>
      <point x="289" y="1114" type="line"/>
      <point x="295" y="1410"/>
      <point x="317" y="1644"/>
      <point x="621" y="1644" type="curve" smooth="yes"/>
      <point x="675" y="1644"/>
      <point x="724" y="1631"/>
      <point x="770" y="1621" type="curve"/>
    </contour>
  </outline>
</glyph>
<glyph name="uniFB02" format="1">
  <advance width="1229"/>
  <unicode hex="FB02"/>
  <outline>
    <contour>
      <point x="957" y="0" type="line"/>
      <point x="957" y="1620" type="line"/>
      <point x="1171" y="1620" type="line"/>
      <point x="1171" y="0" type="line"/>
    </contour>
    <contour>
      <point x="753" y="1453" type="line"/>
      <point x="561" y="1438"/>
      <point x="470" y="1420"/>
      <point x="470" y="1175" type="curve" smooth="yes"/>
      <point x="470" y="1107" type="line"/>
      <point x="750" y="1107" type="line"/>
      <point x="750" y="994" type="line"/>
      <point x="470" y="994" type="line"/>
      <point x="470" y="0" type="line"/>
      <point x="257" y="0" type="line"/>
      <point x="257" y="994" type="line"/>
      <point x="57" y="994" type="line"/>
      <point x="57" y="1107" type="line"/>
      <point x="257" y="1107" type="line"/>
      <point x="257" y="1335"/>
      <point x="279" y="1491"/>
      <point x="437" y="1559" type="curve" smooth="yes"/>
      <point x="524" y="1596"/>
      <point x="630" y="1608"/>
      <point x="753" y="1619" type="curve"/>
    </contour>
  </outline>
</glyph>
